<?xml version="1.0" encoding="utf-8"?>
<!-- Generator: Adobe Illustrator 20.1.0, SVG Export Plug-In . SVG Version: 6.00 Build 0)  -->
<!DOCTYPE svg PUBLIC "-//W3C//DTD SVG 1.1//EN" "http://www.w3.org/Graphics/SVG/1.1/DTD/svg11.dtd">
<svg version="1.1" id="Layer_1" xmlns="http://www.w3.org/2000/svg" xmlns:xlink="http://www.w3.org/1999/xlink" x="0px" y="0px"
	 viewBox="0 0 612 792" style="enable-background:new 0 0 612 792;" xml:space="preserve">
<style type="text/css">
	.st0{fill:none;}
	.st1{fill:#FFFFFF;}
</style>
<rect x="66.5" y="125" class="st0" width="479" height="277"/>
<g id="Layer_2">
</g>
<g>
	<path class="st1" d="M93.2,308.9c-0.3-1.1-1-1.4-2.2-1.4h-1.3v-7.2h5.7c3.4,0,5.2,0.8,5.9,3.8l6.5,27.5c0.6,2.6,0.8,4.9,0.8,4.9
		h0.1c0,0,0.3-2.2,1-4.9l8.7-31.1h7.5l8.2,31.1c0.7,2.7,0.9,4.9,0.9,4.9h0.1c0,0,0.2-2.3,0.8-4.9l6.6-27.5c0.7-3,2.5-3.8,5.9-3.8
		h5.8v7.2h-1.3c-1.2,0-1.9,0.3-2.2,1.4l-10,37.5h-10.2l-7.3-26.1c-0.8-2.9-1.2-5.7-1.2-5.7h-0.1c0,0-0.4,2.7-1.3,5.7l-7.6,26.1h-9.9
		L93.2,308.9z"/>
	<path class="st1" d="M156.1,339.1h4.8v-31.7h-4.8v-7.2H174v7.2h-4.8v31.7h4.8v7.2h-17.9V339.1z"/>
	<path class="st1" d="M180.6,308.9c0-0.9-0.5-1.4-1.5-1.4h-2.9v-7.2h8.6c3.2,0,4.6,1.4,4.6,4.4v33.1c0,0.9,0.5,1.4,1.5,1.4h10.5
		c0.9,0,1.5-0.5,1.5-1.4V335h8v7c0,3.1-1.3,4.4-4.6,4.4h-21.1c-3.2,0-4.6-1.3-4.6-4.4V308.9z"/>
	<path class="st1" d="M214,307.4h-4.4v-7.2h19.5c14.8,0,24.4,8.5,24.4,23s-9.6,23.1-24.4,23.1h-10.5c-3.2,0-4.6-1.3-4.6-4.4V307.4z
		 M224.3,339.1h4.3c9.6,0,15.7-5.5,15.7-15.9c0-10.3-6.3-15.8-15.7-15.8h-5.8v30.3C222.9,338.6,223.4,339.1,224.3,339.1z"/>
	<path class="st1" d="M288.4,299.4c11.7,0,17.5,5.9,17.5,5.9l-5,6.1c0,0-5-4.1-12.3-4.1c-8.3,0-15.4,6.3-15.4,15.7
		c0,10.1,7.2,16.3,15.7,16.3c7.6,0,12.1-4.8,12.1-4.8V331c0-1-0.5-1.4-1.5-1.4h-2.9v-7.2h7.8c3.2,0,4.6,1.3,4.6,4.4v19.7h-7.6v-2.2
		c0-1,0.1-2,0.1-2h-0.1c0,0-5.1,4.9-14.1,4.9c-12.5,0-23.3-9.2-23.3-24.1C264.1,309.8,274.5,299.4,288.4,299.4z"/>
	<path class="st1" d="M310.6,339.1h1.1c1.1,0,1.7-0.3,2.1-1.4l14.2-37.5h9.2l14.2,37.5c0.4,1.2,0.9,1.4,2.1,1.4h1.1v7.2h-5.3
		c-3.4,0-4.6-0.8-5.7-3.8l-3-8.1h-16.2l-3,8.1c-1.1,2.9-2.2,3.8-5.6,3.8h-5.3L310.6,339.1L310.6,339.1z M338.7,327.5l-4.1-11.6
		c-0.9-2.5-1.9-6.9-1.9-6.9h-0.1c0,0-1,4.4-1.9,6.9l-4.1,11.6H338.7z"/>
	<path class="st1" d="M357.8,307.4h-4.4v-7.2h21.5c8.8,0,14.9,5.2,14.9,13.9c0,8.3-5.9,11.8-8,12.2v0.1c0,0,1.5,0.6,2.4,2.3l4.7,8.9
		c0.7,1.4,1.9,1.5,3.4,1.5h0.9v7.2h-4.7c-3.6,0-5.1-0.5-6.7-3.4l-6.1-11.6c-1-1.8-2-2.1-4.5-2.1h-4.5v17.2h-8.8L357.8,307.4
		L357.8,307.4z M373.7,321.9c4.5,0,7.1-2.7,7.1-7.3c0-4.6-2.6-7.2-6.9-7.2h-7.2v14.4h7V321.9z"/>
	<path class="st1" d="M397.5,307.4h-4.4v-7.2h19.5c14.8,0,24.4,8.5,24.4,23s-9.6,23.1-24.4,23.1h-10.5c-3.2,0-4.6-1.3-4.6-4.4V307.4
		z M407.8,339.1h4.3c9.6,0,15.7-5.5,15.7-15.9c0-10.3-6.3-15.8-15.7-15.8h-5.8v30.3C406.3,338.6,406.9,339.1,407.8,339.1z"/>
	<path class="st1" d="M442.5,307.4h-4.4v-7.2h29c3.2,0,4.6,1.4,4.6,4.4v7h-8v-2.8c0-0.9-0.5-1.4-1.5-1.4h-10.8v12.1h15.5v7.2h-15.5
		v11c0,0.9,0.5,1.4,1.5,1.4H464c0.9,0,1.5-0.5,1.5-1.4v-2.8h8v7c0,3.1-1.4,4.4-4.6,4.4h-21.8c-3.2,0-4.6-1.3-4.6-4.4V307.4z"/>
	<path class="st1" d="M475.1,339.1h2.9c0.9,0,1.5-0.5,1.5-1.4v-37.5h8l18.1,25.5c1.9,2.7,4,6.5,4,6.5h0.1c0,0-0.5-3.8-0.5-6.5v-21.1
		c0-3.1,1.3-4.4,4.6-4.4h8.6v7.2h-2.9c-0.9,0-1.5,0.5-1.5,1.4v37.5h-7.9l-18.2-25.5c-1.9-2.6-4-6.5-4-6.5h-0.1c0,0,0.5,3.8,0.5,6.5
		v21.1c0,3.1-1.3,4.4-4.6,4.4h-8.6V339.1z"/>
</g>
</svg>
