<?xml version="1.0" encoding="utf-8"?>
<!-- Generator: Adobe Illustrator 20.1.0, SVG Export Plug-In . SVG Version: 6.00 Build 0)  -->
<!DOCTYPE svg PUBLIC "-//W3C//DTD SVG 1.1//EN" "http://www.w3.org/Graphics/SVG/1.1/DTD/svg11.dtd">
<svg version="1.1" id="Layer_1" xmlns="http://www.w3.org/2000/svg" xmlns:xlink="http://www.w3.org/1999/xlink" x="0px" y="0px"
	 viewBox="0 0 612 792" style="enable-background:new 0 0 612 792;" xml:space="preserve">
<style type="text/css">
	.st0{fill:#FFFFFF;}
</style>
<g id="Layer_2">
</g>
<g id="Layer_1_1_">
	<g>
		<path class="st0" d="M431.9,402.6c0.1-0.1,0.2-0.2,0.2-0.4C432,402.4,431.9,402.5,431.9,402.6z"/>
		<path class="st0" d="M356.5,480.8c-1.6-1.5-3.3-2.8-5-4.2c-1.8-1.4-3.4-2.9-4.5-5s-2.8-3.3-5.3-3.1c-1.2,0.1-2.4-0.1-3.5-0.2
			c-1.6-0.2-3.2-0.5-4.7-1.3c-0.4-0.2-3.6-0.4-4.4,0c-3.2,1.6-6.6,2.7-10,3.8c-0.9,0.3-3.1,2.5-3.7,2.3c-2.1-0.9-5.9-2.4-8-3.4
			c-1.1-0.5-2.2-1-3.2-1.5c-1.6-0.8-3.3-1.5-4.9-2.3c-1.5-0.8-3-1.7-4.6-2.5c-3.5-1.8-6.5-4.3-9.8-6.4c-0.2-0.1-0.3-0.4-0.4-0.7
			c0.3-0.1,0.6-0.2,0.9-0.2c2,0.3,4,0.6,5.9,0.9c0.7,0.1,1.4,0.2,2.2,0.2c2.9,0.2,5.5-0.6,8-2.1c3.2-1.8,5.4-4.5,7.7-7.3
			c0.5-0.7,0.9-1.6,1.1-2.5c0.5-2.6,0.9-5.2,1.1-7.8c0.1-1.6,0.3-3.1,1.1-4.5c0.2-0.4,0.4-0.8,0.5-1.3c0.5-1.5-0.1-2.5-1.7-2.5
			c-0.7,0-1.5,0.2-2.1,0.5c-3,1.3-6,1.2-9,0c-1.1-0.4-2.2-0.8-3.4-1.2c-0.8-0.3-1.6-0.2-2.3,0.3c-0.5,0.4-1.1,0.7-1.5,1.2
			c-1.9,2.1-4.1,3.9-6.5,5.4c-1.9,1.2-2.5,2.7-2.7,4.7c-0.1,2.1-0.3,4.2-0.5,6.3c-0.2,1.6-0.6,3.2-1.5,4.7c-0.2,0.3-0.4,0.6-0.6,0.9
			c-0.6,0.7-1.3,0.8-2.1,0.3c-1.2-0.9-2.4-1.7-3.5-2.7c-5-4.3-9.8-8.7-14.6-13.2c-0.5-0.4-3.9-4.1-4-4.2c-1.6-2.2-3.1-4.5-4.7-6.8
			c-0.1-0.1,0-0.5,0.1-0.7c0.2,0,0.4,0,0.5,0.1c2.7,1.6,5.5,3.2,8.5,4.4c3.7,1.4,2.8,1.6,5.9-0.5c2-1.3,3.9-2.7,5.9-3.9
			c1.2-0.7,1.9-1.5,2.2-2.9c0.4-2.2,1.3-4.2,3-5.7c0.2-0.2,0.4-0.4,0.6-0.6c0.6-0.8,0.4-1.6-0.6-1.9c-0.8-0.3-1.6-0.5-2.4-0.6
			c-1.4-0.2-2.7-0.3-4.1-0.3c-2.2,0-4.3-0.4-6.3-1.6c-1.4-0.9-2-0.8-3,0.5c-0.4,0.4-0.7,0.8-1,1.3c-1.4,2-3.5,3.1-5.3,4.7
			c-3.2,2.7-7.2,2.3-7.7,1.9c-0.2-0.2-0.4-0.4-0.5-0.7c-1.7-3.1-3.4-6.2-5.1-9.3c-0.3-0.5-3.4-7.5-3.8-8.5c-0.8-2.1-1.6-4.3-2.4-6.4
			c-0.3-0.9-1.8-6-2-7c-0.2-1.2-0.3-2.4-0.5-3.6c0.5,0.5,1.1,0.9,1.7,1.3c1,0.6,1.6,1.4,2.2,2.3c1.2,1.8,2.5,3.6,3.8,5.3
			c1.1,1.5,2.4,3,3.5,4.6c1.8,2.6,4.2,4.6,6.3,6.8c0.3,0.4,0.9,0.6,1.4,0.8c4,1.2,8.1,2.2,12.2,2.9c3.8,0.6,11.1-3.1,11.1-3.2
			c2.4-1.1,4.8-2.2,7.2-3.3c2.1-0.9,4.1-1.9,6.2-2.8c0.7-0.3,1.3-0.7,2-1c0.2-0.2,0.4-0.4,0.5-0.6c0-0.1,0-0.3,0-0.5
			c-0.3-0.5-0.7-0.9-1.1-1.3c-0.2-0.1-0.2-0.3-0.1-0.5c-0.1-0.1-0.2-0.3-0.4-0.4c-1-0.5-2.1-1.6-2.4-2.7c-1.6-1.9-2.9-4.1-4.1-6.4
			c-0.6-1.1-1.2-2.3-1.7-3.4s-1.3-1.7-2.3-2.1c-1.4-0.5-2.8-0.7-4.3-0.6c-0.5,0-1.1,0.1-1.6,0.2l-1.3,0.2c-2.9,0.3-5.9,0.1-8.8-0.1
			c-1.2,0-2.3,0.1-3.5,0.2c-3.6,0.3-6.9,1.6-10.3,2.5c-4.8,1.3-9.7,1.4-14.5-0.3c-0.3-0.1-0.7-0.3-1.1-0.2c-0.3,0.1-0.6,0.2-0.8,0.4
			c-0.5-3-0.9-6.1-1.2-9.1c-0.3-2.8-0.5-5.6-0.4-8.5h6.5c0.4,0.3,0.9,0.6,1.5,0.8c3.9,1.2,7.8,2.6,11.7,3.9c2.6,0.8,5.2,0.9,7.9,0.6
			c2.1-0.2,4.2-0.4,6.3-0.6c1.2-0.1,1.6-0.8,1.2-1.9c-0.1-0.4-0.9-1.6-1.8-2.8h8.7l0,0c0.1,0,0.2,0,0.3,0c0.1,0,0.1,0,0.2,0
			s0.1,0,0.2-0.1l0,0c0.2,0,0.3,0,0.3,0.2c0.3,0.1,0.6,0.3,0.8,0.5c0.3,0.1,0.5,0.3,0.7,0.5v-0.1c0.2,0.2,0.4,0.3,0.6,0.5
			c0,0,0,0.1,0.1,0.1c0.1,0.2,0.3,0.3,0.5,0.3l0,0c0.9,0.6,1.9,1,3,1c0.5,0,0.6-0.6,0.4-0.8c-1.2-0.1-2.2-0.7-3-1.7
			c-0.1-0.1-0.1-0.2-0.2-0.2l-0.1-0.1c-0.2-0.2-0.4-0.5-0.6-0.8c-0.3-0.5-0.6-1-0.9-1.4c-0.1-0.2-0.2-0.3-0.3-0.5
			c-0.3-0.8-1-1.3-1.9-1.3h-177c-1.1,0-2,0.9-2,2s0.9,2,2,2h27.7c-0.4,1.2-0.5,2.6-0.7,3.9c-0.1,0.7,0.5,1.8,1,2.1
			c0.5,0.2,1.7-0.3,2.1-0.8c1.4-1.7,2.6-3.4,3.9-5.2h3.6c0.9,2.8,2.6,5,5.4,6.6c1.2,0.6,1.8,0.4,1.7-0.9s-0.3-2.7-0.8-3.9
			c-0.2-0.6-0.5-1.1-0.7-1.7H152c-0.9,0.8-2.7,2.5-3,2.8c-3.3,3.4-5.9,7.3-7.5,11.8c-1,2.6-1.6,5.5-1.9,8.3c-0.3,2.3,1,2.9,2.8,1.5
			s3.5-3.1,4.9-5c1.3-1.8,2.2-3.9,3.3-5.9c0.1-0.2,0.3-0.4,0.5-0.6c0.1,0.3,0.2,0.6,0.2,0.9c0,1.6,0,3.1,0,4.7
			c0,0.5,0.5,8.3,1.4,10.2c1.9,4.1,1.6,7.9-0.4,11.8c-0.3,0.6-0.6,1.3-0.8,2c-0.1,0.4-0.6,1-0.2,1.3c0.4,0.3,1.1-0.4,1.3-0.8
			c0.7-1.3,1.3-2.7,2-4c0.2-0.4,0.4-0.7,0.6-1.1c0.2,0.3,0.5,0.6,0.6,1c1.7,4.3,6.1,11.8,5.1,15.2c-0.8,2.7-0.1,5.5,0,8.3
			c0,1.4,0.3,2.8,0.6,4.2c0.2,1.2,1,2.1,2.3,2.1c1.4,0,2-1,2.2-2.2c0.2-0.8,0.3-1.5,0.5-2.3c0.1-0.5,0.2-1,0.4-1.5
			c0.2,0.5,0.5,1,0.7,1.5c0.9,2.1,1.8,4.2,2.8,6.2c0.5,1,1.2,2.5,2.7,1.9c1.4-0.6,1.1-2.2,0.8-3.4c-0.6-2.3-1.5-4.6-2.2-6.9
			c-0.1-0.4-0.2-0.8-0.3-1.2c0.4,0.1,0.8,0.3,1.2,0.4c3.1,0.8,6.3,1.7,9.4,2.4c0.7,0.1,1.5-0.5,2.3-0.7c-0.3-0.8-0.4-1.7-0.9-2.2
			c-3.3-3.8-7.5-6.1-12.5-6.7c-1.5-0.2-3-0.3-4.5-0.5c-0.4-0.1-2.7-1.5-4.5-4.7c-3.1-5.5-5.6-11.2-6.9-17.4c-0.1-0.3,0-0.6,0-1
			c0.2,0.2,0.5,0.4,0.7,0.7c2.5,3.2,5.7,5.3,9.4,6.8c0.5,0.2,0.9,0.4,1.4,0.4c1.5,0.1,2.1-0.6,1.4-1.9c-1.1-2.3-2.2-4.7-3.6-6.7
			c-2.7-3.8-6-7.1-10.3-9c-1.1-0.5-1.7-1-1.6-2.3c0.3-5.7,0.6-11.4,0.8-17c0-0.4,0-0.7,0.1-1.1h5.1c3.2,8.3,7.2,16.2,11.9,23.7
			c2.3,3.7,4.2,7.5,4.1,12.1c0,1.1,0.1,2.1,0.3,3.2c0.3,1.8,0.6,4,1.1,5.8c0.1,0.5,0.7,0.9,1.3,0.9c0.7-0.1,1-1,1.1-1.6
			c0.2-0.8,0.1-1.7,0.2-2.5c0-0.5,0.2-0.9,0.3-1.4c0.3,0.2,0.7,0.4,1,0.7c2.1,1.3,4.1,2.8,6.3,3.9c0.9,0.4,2.5,1,3.2,0.1
			c0.7-0.8-0.2-2.1-0.6-3c-1.5-3.8-4.5-6-8.2-7.3c-2.8-0.9-4.4-2.9-5.7-5.3c-0.3-0.6-0.6-1.3-1-1.9c-2.2-3.9-4.4-7.8-6.5-11.7
			c-1.9-3.5-3.6-7.1-5.3-10.7c-0.2-0.4-0.2-0.9-0.2-1.4c0.4,0.2,0.7,0.3,1.1,0.5c4.6,2.7,9.1,5.6,13.7,8.2c1.7,1,2.7,2,2.9,4
			c0.2,1.6,0.5,3.2,1,4.8c0.9,2.8,1.6,5.7,4.3,7.4c0.8,0.5,2.1,0.5,2.9,0.1c0.4-0.2,0.6-1.7,0.4-2.4c-0.8-2.6-1.9-5.1-2.8-7.6
			c-0.1-0.3-0.1-0.7-0.2-1c0.3,0.1,0.7,0.2,1,0.3c1.8,0.9,3.7,1.8,5.5,2.8c0.3,0.2,0.8,0.6,0.8,0.9c0.3,2,1.9,2,3.2,2.1
			c0.7,0.1,1.7-0.6,2.1-1.3c0.7-1.2,0.1-2.2-0.6-3c1.1,0.3,2.2,0.6,3.3,0.7c4.4,0.7,8.7,0.6,13.1-0.1c1.8-0.3,3.2-0.9,4.5-2.2
			c4.1-3.9,7.6-8.4,10.3-13.3c0.3-0.6,0.8-1.2,1.2-1.8c0-0.1,0.4,0,0.4,0.1c0.1,0.1,0.1,0.3,0.1,0.5c0.2,4.6,1,9.1,1.5,13.6
			c0.4,2.8,0.6,5.6,1.2,8.4c0.2,0.7-0.2,1.1-0.7,1.2c-3.1,1-6.3,1.9-9.6,1.3c-1-0.2-2-0.1-3,0.1c-2.2,0.4-4.5,0.9-6.7,1.2
			c-2.8,0.4-5.6,0.7-8.4,1c-1.5,0.2-1.9,0.5-2,2c-0.1,1.6,0,3.3-0.2,4.9c-0.4,3.6-1.3,7.2-2.6,10.6c-0.2,0.4-0.4,0.8-0.5,1.3
			c-0.2,0.7-0.1,1.3,0.6,1.7c2.9,1.6,5.7,3.3,9.1,3.2c0.5,0,1.1-0.1,1.6-0.2c3.2-1,6.2-2.3,8.7-4.4c0.3-0.2,0.6-0.4,1-0.8
			c0.8-0.5,1.7-1,2.7-1.6c1.8-1.1,3.2-2.6,3.8-4.8c0.5-1.6,1.3-3,2.4-4.2c1.4-1.6,2.6-3.3,3.9-4.9c0.3-0.4,0.8-0.8,1.2-1.1
			c0.1-0.1,0.6,0,0.6,0.1c0.2,0.4,0.4,0.8,0.6,1.2c0.6,1.9,1.2,3.8,2.3,5.6c0.2,0.3,0.2,0.7,0.3,1c0.1,0.5,0,0.9-0.4,1.2
			c-2.1,1.4-4.2,2.9-6.3,4.3c-1,0.6-2.2,1-3.3,1.3c-1.4,0.4-2.4,1.1-3.1,2.4c-0.7,1.5-1.7,2.8-2.6,4.2c-0.9,1.4-1.7,2.8-2.5,4.2
			c-0.3,0.5-0.5,1-0.9,1.4c-1.4,1.2-1.3,2.6-0.9,4.2c0.9,3.2,1.6,6.5,2.4,9.8c0.3,1.3,0.7,2.6,1.2,3.9s1.2,1.5,2.3,1
			c1.4-0.7,2.7-1.5,4.1-2.1c0.9-0.4,1.8-0.8,2.8-1.2c3.4-1.2,5.8-3.7,7.7-6.7c0.8-1.3,1.4-2.8,1.8-4.3c0.8-2.7,1.4-5.5,1.9-8.3
			c0.3-1.3,0.3-2.7,0.4-4.1c0-0.1,0.2-0.3,0.3-0.4c0.1,0,0.4,0.1,0.4,0.2c0.8,1.2,1.6,2.5,2.2,3.8c1.5,3.1,3.4,6,5.4,8.9
			c0.6,0.9,1.2,1.8,1.8,2.8c0.1,0.2,0,0.7-0.1,0.7c-1.9,0.3-2.9,1.9-4.1,3c-2.8,2.6-5.3,5.5-7.9,8.3c-1.7,1.9-3.2,4-4.3,6.3
			c-0.5,0.9-0.9,1.8-1,2.8c-0.7,4.3-0.7,8.7-0.1,13.1c0.2,1.5,0.9,2.7,2,3.8c2.2,2.2,4.4,4.4,6.5,6.6c1,1.1,1.8,2.3,2.7,3.5
			c1.1,1.5,2.2,2.9,3.5,4.2c1,0.9,1.8,2,2.8,3c1.1,1,3.3-0.3,3.7-0.7c0.8-1.1,1.7-2.1,2.5-3.2c1.2-1.7,2.4-3.4,3.7-5.1
			c0.7-0.9,1.5-1.9,2.4-2.6c2.1-1.6,3.2-3.8,3.4-6.3c0.3-3.3,0.6-6.5,0.5-9.8c-0.1-2.9-0.4-5.6-2-8.1c-1.3-2.1-2.2-4.4-3.3-6.6
			c-0.1-0.1,0-0.4,0-0.4c0.1-0.1,0.4-0.2,0.5-0.1c0.4,0.2,0.7,0.5,1.1,0.8c3.8,3.3,7.6,6.6,11.3,9.8c0.3,0.3,0.7,0.6,1.1,0.8
			c3.5,2.1,6.5,5,9.8,7.3c1.2,0.8,2.5,1.5,3.7,2.3c0.8,0.5,1.6,0.8,2.4,1.3c0.1,0.1,0.2,0.5,0.2,0.6c-0.7,1.4-1.3,2.8-2.1,4.1
			c-1.2,2.2-2.3,4.5-3.9,6.6c-0.4,0.6-0.6,1.3-0.7,2c-0.2,0.9,0.1,1.7,0.7,2.5c2.2,2.6,4.3,5.1,6,8.1c1,1.8,2.2,3.6,3.7,5
			c0.5,0.5,1.1,0.9,1.9,1c2.6,0.2,4.9,1.4,7.2,2.4c2.5,1.1,4.9,2.5,7.3,3.7c1.1,0.5,2.1,1,3.4,1.1c1.4,0,2.1-0.5,2-1.9
			c0-0.5-0.2-1.1-0.2-1.6c-0.2-2.7-0.2-5.3,1.2-7.7c0.7-1.2,0.6-2.3-0.2-3.5c-2-3.1-4.4-5.8-7.5-7.8c-2.4-1.6-4.8-2.9-7.5-3.9
			c-2.4-0.9-4.2-2.6-5.6-4.6c-0.7-0.9-1.3-1.9-1.2-3.1c0.9,0.3,1.9,0.6,2.8,1c5,2.2,10,4.5,15,6.7c0.9,0.4,1.6,0.9,2,1.7
			c0.5,0.9,1.1,1.9,1.6,2.8c1.2,2.1,2.4,4.1,4.1,5.8c0.5,0.5,0.9,0.8,1.6,0.9c3.7,0.5,7.2,1.8,10.7,3.3c1.3,0.6,2.8,0.8,4.2,1.2
			c1.2,0.3,2.3,0.1,3.3-0.7c1.2-1,2.6-1.7,3.8-2.6c2.4-1.8,5.1-2.8,8-3.5c0.9-0.2,2-0.1,2.3-1.1
			C358.2,482.2,357.2,481.5,356.5,480.8z M257.1,419.7c2.7-1.6,5.1-3.5,7.1-6c0.4-0.5,1-0.5,1.5-0.2c1.5,0.8,3.1,1,4.8,1.1
			c0.8,0.1,1.6,0.1,2.4,0.2c0.1,0,0.3,0.2,0.4,0.3c0,0.1,0,0.4-0.1,0.4c-0.9,0.6-1.8,1.2-2.7,1.8c0,0-1.8,1.2-2.8,1.7
			c-1.7,1-3.6,1.8-5.7,1.8c-1.5,0-3.1-0.2-4.6-0.4c-0.2,0-0.4-0.2-0.4-0.2C256.9,420.1,256.9,419.8,257.1,419.7z M254.4,422.4
			c2.5,0.2,4.9,0.4,7.4,0.5c2,0.1,3.8-0.3,5.5-1.4c1.5-1,3-2,4.6-3c0.7-0.4,1.4-0.8,2.1-1.2c0.5,0.9-0.4,1.5-0.5,2.3
			c-0.2,0.6-0.4,1.2-0.5,1.8c-0.2,0.7-0.6,1.3-1.2,1.7c-1.1,0.7-2.1,1.4-3.2,2.1c0,0,0,0,0-0.1c-1.1,0.7-2.2,1.4-3.2,2.1
			c-0.8,0.6-1.6,0.6-2.6,0.3c-3.1-1-5.8-2.6-8.4-4.5c-0.2-0.1-0.2-0.4-0.3-0.6C254,422.4,254.2,422.4,254.4,422.4z M287.4,395.7
			c0.2,0,0.4,0,0.5,0l0,0h0.1c0.1,0,0.3,0.1,0.4,0.1c0.4,0.1,0.4,0.7,0.1,0.9c0,0,0,0.1-0.1,0.1c-1.4,0.9-3,1.4-4.4,2.2
			c-0.1,0.1-0.2,0.1-0.3,0.1c-0.9,0.7-2,0.9-3.2,1.2c-0.1,0-0.1,0-0.2,0c-2.5,1.1-5,2.4-7.2,3.9c-0.5,0.4-1.1,0.5-1.7,0.7
			c-2.2,0.8-4.5,0.8-6.7,0.4c-3.3-0.7-6.6-1.3-9.8-2.4c-1.7-0.6-3.2-1.4-4.3-2.7c-2.3-2.6-4.5-5.3-6.7-7.9c0.1,0-1.2-2.1-1.8-3.1
			c-0.1-0.2-0.2-0.5-0.3-0.7c0.2,0,0.5-0.1,0.7,0c4.2,1.8,8.4,3.5,12.8,4.8c3.7,1.1,7.4,1.9,11.3,2c6.1,0.2,12.1,0.2,18.2,0.3
			c0.3,0,0.5,0,0.8,0l0,0l0,0c0.1,0,0.2,0.1,0.3,0.1c0.2,0,0.4,0,0.7,0C286.9,395.6,287.1,395.6,287.4,395.7z M241.9,385.2
			c0.3-0.1,0.5-0.1,0.8-0.1c4.6-0.3,9.2-1,13.7-2.3c2.3-0.6,4.6-1.1,7-1.3c2.9-0.2,5.8-0.1,8.7-0.1c1.7,0,3.5-0.1,5.2-0.1
			c2,0,3.6,0.6,4.2,2.7c0.1,0.2,0.1,0.3,0.2,0.5c0.9,1.9,2.9,5.5,3,5.5c0.7,1.1,1.4,2.1,2.1,3.2c0.1,0.1-0.1,0.5-0.2,0.6
			c-0.2,0.1-0.5,0.1-0.8,0.1c-3,0.3-6,0.3-9,0c-3.7-0.4-7.5-0.5-11.2-0.7c-2.8-0.1-5.6-0.5-8.3-1.4c-4.2-1.4-8.5-2.7-12.6-4.5
			c-1-0.4-1.9-1-2.9-1.6c-0.1,0-0.1-0.2-0.1-0.2C241.7,385.5,241.8,385.3,241.9,385.2z M171.4,419.7c3.8,0.5,7.7,1.7,10.1,5.2
			c0.1,0.1,0.7,0.5,0.5,1c-0.2,0.4-0.9,0.3-1.3,0.3c-3.6-0.3-6.9-1.4-10-3.2c-0.1,0-0.1-0.1-0.2-0.1c-0.8-0.8-1.9-1.6-2.2-3
			C169.3,419.7,170.4,419.6,171.4,419.7z M166.8,421.2c0.2,0.1,0.3,0.2,0.5,0.3c3,1.9,4.5,9.1,5.2,12.1c0,0.2,0,0.6-0.3,0.7
			c-0.4,0.1-0.8-0.3-1.3-1.1c-1.4-1.9-3.3-8.7-4.3-11.3C166.5,421.8,166.7,421.5,166.8,421.2z M162.7,416.6c0.3,0.4,0.6,0.8,0.9,1.2
			c0.4,0.5,0.6,1.1,0.7,1.7c0.3,1.8,0.6,3.5,0.7,5.3c0.1,1.5,0.1,3.1-0.1,4.7c-0.1,0.6-0.4,1.8-1.1,1.8c-0.7,0-1-1.2-1.1-1.9
			c-0.3-1.5-0.4-3-0.4-4.5C162.1,422.6,162.6,419,162.7,416.6z M153.4,386.3c0.7,0.3,1.5,0.5,2.1,0.9c2.3,1.8,4.9,3.4,6.8,5.6
			c1.7,2,2.7,4.3,4,6.4c0.2,0.3,0.5,0.9,0.2,1.2c-0.3,0.3-0.9,0.1-1.2-0.1c-2.2-1.2-4.5-2.2-6.4-3.8c-1.9-1.6-3.3-3.9-4.8-5.9
			c-0.4-0.6-0.6-1.4-0.8-2.1C153.3,387.8,153.4,387.1,153.4,386.3z M150.8,372.7c-0.8,2.9-1.9,5.8-3.3,8.5c-1.1,2-2.8,3.7-4.3,5.5
			c-0.4,0.5-1.2,1.2-1.8,0.8c-0.5-0.3-0.2-1.3-0.1-1.9c0.6-4.3,1.9-8.3,4.3-11.9c1.4-2.1,4.6-5.6,6.6-8.1
			C151.8,368,151.3,370.4,150.8,372.7z M184.6,402.5c1.2,1.1,2.1,2.5,3,3.8c0.2,0.3,0.4,0.9,0.1,1.2c-0.3,0.3-0.9,0.1-1.2-0.1
			c-2.5-1.5-6.3-3.3-7.8-5.3C175.4,398,183.5,401.5,184.6,402.5z M176.2,401.8c0.2,0.2,0.5,0.3,0.5,0.4c1.5,2.6,0.6,4.8,0.7,5.9
			c0,0.1-0.1,0.3-0.2,0.3c-0.1,0-0.2-0.2-0.2-0.3c-0.2-1.1-0.9-1.9-1.2-5.3C175.8,402.8,176.1,402.1,176.2,401.8z M259,367.4
			c-2.6,0-5.2,0.1-7.6-0.9c-2-0.9-4.1-1.5-6.2-2.1h9.4c1.4,0.9,2.8,1.6,4.5,2c0.5,0.1,1,0.3,1.5,0.5
			C260.3,367.6,259.5,367.4,259,367.4z M261.9,364.8c-0.3,0-0.6,0.1-0.8,0c-0.7-0.1-1.4-0.3-2.1-0.4h3.4
			C262.3,364.6,262.1,364.8,261.9,364.8z M178,365.3c-0.2,0.5-0.8,0.6-1.2,0.2c-0.2-0.2-0.1-0.5,0-0.6c0-0.2,0.1-0.4,0.3-0.5h0.5
			C178,364.5,178.2,364.9,178,365.3z M128.1,367.9c-0.4,0.4-1,0.6-1.5,0.9c-0.1-0.6-0.4-1.2-0.3-1.8c0.1-0.9,0.3-1.8,0.6-2.6h4
			C129.9,365.6,129,366.8,128.1,367.9z M140.6,367.3c0.2,0.3,0,0.8,0,1.2c-0.4-0.2-0.9-0.3-1.3-0.6c-0.4-0.2-0.6-0.6-1-0.9
			c-0.6-0.8-1.1-1.7-1.4-2.6h2.4C139.7,365.4,140.1,366.3,140.6,367.3z M186.5,389.9c0.1,0.5,0.4,1.3-0.1,1.6
			c-0.5,0.3-1.1-0.5-1.6-0.8c-0.2-0.1-0.3-0.3-0.5-0.6c-2.3-2.8-2.9-6.5-3.7-10.1c0-0.2,0.1-0.4,0.1-0.6c0.2,0.1,0.5,0.1,0.7,0.2
			c0.4,0.3,0.7,0.7,1,1.1C184.5,383.4,185.9,386.5,186.5,389.9z M194.2,383c-0.5,1.5-1.4,0.9-2.3,0.5c-1.2-0.6-2.4-1.1-3.6-1.8
			c-2.5-1.4-5-2.9-7.5-4.3c-2.1-1.2-4.2-2.4-6.3-3.7c-0.3-0.2-0.6-0.5-0.9-0.8c0.3-0.1,0.6-0.3,1-0.4c1.2-0.4,2.4-0.7,3.6-1.3
			c0.6-0.3,1-0.8,1.5-1.3c-0.7-0.1-1.4-0.3-2.1-0.2c-0.8,0.1-1.5,0.6-2.2,0.7c-1.8,0.2-3.7,0.5-5.4,0.2c-1.3-0.2-2.4-1.4-3.7-2
			c-2.2-1.1-4-2.5-5.4-4.3h14.7c0,0.8,0.2,1.7,0.8,2.5c0.5,0.9,1.1,0.8,1.8,0.2c0.5-0.4,0.7-1.7,0.5-2.7H195c0,0.2-0.1,0.3-0.1,0.5
			c-1.1,4-2.1,7.9-2.6,12c-0.1,1-0.5,3.3-0.3,4.1c0.1,0.6,0.6,0.9,1.1,1.1s0.9,0.4,1.4,0.5C194.4,382.7,194.2,382.9,194.2,383z
			 M195.7,372.3c0.5-2.6,1.2-5.3,1.8-7.9h21c-0.1,0.1-0.1,0.1-0.2,0.2c-2.6,2.6-5.4,4.9-8.7,7.4c-1.8,0.9-4,2.1-6.3,3.3
			c-2.3,1.2-4.7,1.8-7.2,2.5c-0.9,0.2-1.2,0-1.1-0.9C195.2,375.3,195.4,373.8,195.7,372.3z M196.4,386.1c-0.5,0.4-0.8,0-0.8-0.1
			c-0.8-0.6-0.6-1.8,0-2.1c0.3-0.2,1,0.1,1.3,0.8C197,385.1,196.8,385.7,196.4,386.1z M222.2,374.5c-1.6,2.1-3.3,4.1-5.4,5.7
			c-1,0.8-2.1,1.3-3.4,1.5c-3.9,0.6-7.8,0.8-11.7,0.6c-1.8-0.1-3.6-0.6-5.3-1.3c-0.3-0.1-0.6-0.4-0.9-0.6c-0.1-0.1,0-0.6,0.1-0.6
			c0.4-0.2,0.8-0.3,1.3-0.5c4.7-1.4,9.2-3.1,13.2-5.8c2.1-1,3.9-2.6,5.7-4.2c1.3-1.2,2.5-2.4,3.8-3.6c0.5-0.4,0.9-0.9,1.3-1.3h7.9
			C226.7,367.9,224.7,371.3,222.2,374.5z M228.2,399.9c-1.3,1.4-2.1,3.2-2.9,4.9c-0.6,1.2-1.3,2.2-2.4,3c-2.5,1.8-5,3.7-7.5,5.4
			c-0.9,0.6-1.9,1-2.9,1.5c-2.8,1.3-5.6,1.4-8.3-0.3c-0.2-0.1-0.3-0.4-0.5-0.5c0.1-0.1,0.3-0.2,0.4-0.3c0.8-0.2,1.6-0.4,2.4-0.6
			c3.6-0.9,7.1-2.2,9.9-4.9c2.2-2.1,4.6-3.8,7-5.6c1.5-1.1,3.1-2.2,4.7-3.2C228.1,399.5,228.3,399.8,228.2,399.9z M230.6,394.6
			c-1.5,1.3-3,2.6-4.6,3.9c-3.6,3-7.6,5.6-11,8.9c-0.3,0.3-0.7,0.6-1.4,1.2c-1.6,0.8-3.5,1.8-5.5,2.6c-1.3,0.6-2.8,0.9-4.3,0.8
			c-0.7,0-1-0.4-0.9-1.1c0.2-1,0.4-2,0.6-2.9c0.7-3.2,1.4-6.4,1.4-9.7c0-1.2,0.1-1.3,1.4-1.5c3.2-0.5,6.5-1,9.7-1.5
			c2.9-0.5,5.7-0.9,8.7-0.5c1.3,0.2,2.7-0.2,4.1-0.4c0.5-0.1,1.1-0.2,1.6-0.3c0.2,0,0.3,0.1,0.5,0.1
			C230.7,394.3,230.7,394.5,230.6,394.6z M223.8,435.1c-0.1,0.2-0.4,0.5-0.6,0.5c-0.2,0-0.5-0.3-0.6-0.5c-0.5-1.9-0.8-3.9-1.4-5.8
			c-1.4-4-0.8-3,1.1-6.8c0.5-0.9,1.1-1.7,1.6-2.6c1-1.6,2-3.2,3-4.9c0.6-0.9,1.3-1.7,2.5-1.9c2-0.3,3.7-1.5,5.3-2.8c1-0.7,2-1.3,3-2
			c0.1-0.1,0.4,0,0.5,0.1s0.2,0.3,0.1,0.5c-0.7,1.6-1.2,3.2-2.4,4.6c-1.5,1.8-2.9,3.7-4,5.8c-1.4,2.6-2.5,5.5-3.7,8.2
			c-0.4,0.8-0.7,1.7-1.2,2.5C226,431.7,224.9,433.4,223.8,435.1z M240.5,418.8c-0.4,2-1,3.9-1.5,5.8c-1,4.3-3.4,7.6-6.8,10.2
			c-0.2,0.1-0.3,0.2-0.5,0.3c-2.2,1-4.5,2-6.7,3c-0.1,0.1-0.5,0-0.5-0.1c0-0.2-0.1-0.5,0-0.7c0.8-1.4,1.7-2.8,2.6-4.2
			c1.3-2.2,2.5-4.4,3.3-6.9c0.8-2.7,2.3-5,3.7-7.2c1.8-2.8,3.9-5.4,6-8.1c0.1-0.1,0.3-0.2,0.4-0.2c0.1,0.1,0.2,0.3,0.3,0.4
			C241.1,413.8,241,416.3,240.5,418.8z M249.3,441.4c-0.2,1.8-0.7,3.6-0.6,5.4c0.2,4.3,0,8.5,0,12.8c0,5.6,0.2,11.3,0.3,16.9
			c0,0.2-0.1,0.5-0.2,0.7c-0.2-0.1-0.5-0.2-0.6-0.3c-0.5-0.6-0.9-1.4-1.5-2c-2.2-2.4-4.4-4.8-6.7-7.1c-1.5-1.5-2.4-3.2-2.5-5.3
			c-0.1-2.7-0.2-5.5-0.1-8.2c0.1-2.7,0.9-5.2,2.5-7.4c2.7-3.7,5.8-7,8.8-10c0.4-0.3,0.5-0.5,0.6-0.6s0.4-0.2,0.5-0.1
			s0.2,0.3,0.2,0.4C249.8,438.3,249.5,439.9,249.3,441.4z M266.6,460.2c0,0.2,0,0.4,0,0.5c0.3,2-0.1,4-0.4,6
			c-0.3,1.8-0.9,3.4-2.5,4.7c-1.8,1.4-3,3.3-4.3,5.2c-1.3,2-2.8,3.8-4.2,5.7c-0.7,1-1.1,0.7-1.8,0.3c-1.2-0.9-2.3-1.8-2.5-3.4
			c-0.3-2.4-0.7-4.8-0.7-7.3c0.1-4.3-0.1-8.5-0.1-12.8c0-2.5,0.1-5.1,0-7.6c-0.2-2.9-0.1-5.8,0.5-8.7c0.5-2.4,1.3-4.7,2.1-7
			c0.2-0.5,2.2-1.9,2.4-2c0.1,0,0.3,0.1,0.4,0.2c0.5,0.4,0.9,0.9,1.3,1.3c0.7,0.7,1.4,1.4,1.8,1.8c1.6,2.9,3.1,5.4,4.3,8
			C265.2,449.9,267.7,454.6,266.6,460.2z M309.7,432.1c0.5,0.3,0.1,0.8,0,1.2c-0.2,0.9-0.5,1.8-0.5,2.7c0,3.1-0.8,6.1-1.5,9.1
			c-0.1,0.5-0.3,1.1-0.6,1.5c-1.8,2.3-3.8,4.4-6.2,6.1c-4.1,3.3-8.7,2.5-13.4,1.6c-0.4-0.1-0.4-0.6-0.1-0.9c0.6-0.4,1.2-0.9,1.8-1.3
			c1.6-1,3.2-2,4.9-3c2.4-1.5,4.5-3.4,6.1-5.8c1.4-2.1,2.8-4.2,4.4-6.2c1.3-1.6,2.8-3.1,4.2-4.6C309,432.3,309.6,432,309.7,432.1z
			 M284.4,451.3c0-0.2,0.1-0.4,0.1-0.5c0.7-1.8,0.9-3.7,1.2-5.6c0.2-2,0.6-4,0.9-5.9c0.1-0.9,0.6-1.5,1.3-2c2.6-1.8,5.3-3.5,7.4-6
			c0.4-0.5,0.9-0.6,1.5-0.4c0.4,0.1,0.9,0.2,1.3,0.3c2.4,0.6,4.6,1.8,7.1,1.6c0.4,0,0.6,0.6,0.3,1.1c-1.7,2.2-3.4,4.3-4.9,6.5
			c-2.1,3-4.4,5.8-7.9,7.5c-0.7,0.5-1.5,1.1-2.4,1.6c-1.7,0.9-3.4,1.8-5.1,2.6c-0.2,0.1-0.6,0.1-0.7-0.1
			C284.4,451.9,284.4,451.6,284.4,451.3z M313.2,497.7c0,0-0.1,0.1-0.3,0.1c-0.2-0.1-0.6-0.2-0.9-0.3c-3-1.3-6-2.6-9-3.9
			c-0.7-0.3-1.3-0.7-2-0.8c-1.3-0.1-2.2-0.8-2.9-1.8c-0.5-0.7-1-1.3-1.4-2c-2-2.8-4-5.6-6-8.4c-0.2-0.2-0.3-0.4-0.5-0.7
			c-0.4-0.6-0.5-1.1-0.2-1.8c1.1-2,2.1-4,3.2-6c0.4-0.7,1.1-0.7,1.4,0.1c0.6,1.4,1,2.9,1.7,4.3c2.2,4.4,5.2,8.4,8.2,12.2
			c2.3,2.9,4.9,5.6,7.9,7.9c0.3,0.2,0.5,0.5,0.7,0.8C313.2,497.5,313.2,497.6,313.2,497.7z M299,473.4c1.7,2.1,3.6,3.8,6.3,4.6
			c2.7,0.8,5,2.3,7.1,3.9s4.1,3.3,5.4,5.7c0.4,0.7,0.5,1.3,0.1,2c-0.5,1.1-0.8,2.2-1.1,3.4c-0.2,0.9-0.1,1.8-0.1,2.7
			c0,0.4-0.2,0.8-0.3,1.3c-0.4-0.1-0.9-0.1-1.2-0.4c-2-1.6-4-3.2-5.8-4.9c-2.8-2.7-5.4-5.7-7.3-9.1c-0.6-0.8-1.2-1.5-1.7-2.3
			c-1.7-2.6-3.1-5.3-4-8.3c-0.1-0.5-0.1-1.1-0.1-1.6c0.8-0.1,0.8,0.6,1.1,1C298,472.1,298.5,472.8,299,473.4z M350.4,483.8
			c-2.8,1.3-5.5,2.9-8,4.7c-0.7,0.5-1.3,0.5-2.1,0.3c-1.5-0.4-3-0.8-4.4-1.3c-2.5-0.9-4.8-2.2-7.5-2.6c-2.3-0.3-3.9-1.5-5-3.4
			c-0.3-0.5-0.6-0.9-1.1-1.6c-0.5-0.8-1.1-1.9-1.8-3c-0.1-0.1-0.1-0.4,0-0.5c0.2-0.2,0.4-0.3,0.7-0.3c0.3,0,0.5,0.2,0.8,0.3
			c4,1.3,7.9,2.7,12,3.9c3.7,1.1,7.4,2.1,11.2,2.2c1.6,0,3.3,0.3,4.9,0.4c0.2,0,0.4,0.3,0.6,0.4
			C350.7,483.4,350.6,483.7,350.4,483.8z M349.6,481.1c-2.6-0.2-5.3-0.5-7.9-0.8c-1.5-0.2-3-0.5-4.5-0.9c-1.1-0.3-2.1-0.6-3.1-1
			c-3.3-1.1-6.6-2.2-9.8-3.4c-1.1-0.4-2.1-1-3.2-1.6c-0.2-0.1-0.2-0.4-0.3-0.7c1.1-0.4,2-0.8,2.9-1.1c2-0.7,4-1.2,5.9-2.1
			c1.3-0.6,2.5-0.8,3.9-0.3c2.6,1,5.3,1.4,8,1.3c2-0.1,3.3,0.8,4.1,2.5c0.9,1.9,2.3,3.3,3.9,4.5c0.4,0.3,0.7,0.5,1.1,0.8
			c0.8,0.7,1.9,1.1,2,2.4C351.6,480.9,350.6,481.2,349.6,481.1z"/>
		<path class="st0" d="M467.6,425.7c-0.6,0.2-1.2,0.5-1.7,0.8c-1.3,0.9-2,2.8-1.4,3.6c0.9,1.1,3.8,1.3,4.9-0.5
			c0.2-0.3,0.5-1.2,0.6-2C470.2,426.1,469.1,425.2,467.6,425.7z M468,428.9c-0.3,0.4-1.3,1.5-2.1,0.7c-0.7-0.7,0.4-1.5,0.7-1.6
			c0.5-0.4,1.3-1.1,1.8-0.7C468.8,427.6,468.3,428.5,468,428.9z"/>
		<path class="st0" d="M469,421.7c1.2-1.3,1.3-3.2,0.3-4.2c-0.8-0.8-2.1-0.7-2.8,0.1c-1,1.2-1.3,4-0.4,4.7
			C466.8,423,468,422.8,469,421.7z M467.7,418.9c0-0.1,0.5-0.5,0.8-0.1c0.5,0.7-0.5,1.3-0.8,1.8c0,0.1-0.5,0.1-0.6-0.1
			C466.8,420.1,467.5,419.4,467.7,418.9z"/>
		<path class="st0" d="M432.7,383.7c-0.9,1-0.8,2.9,0.4,3.8c1.1,0.9,2,0.3,2.8-0.5c1.1-1.1,1.3-2.9,0.5-3.6
			C435.4,382.5,433.7,382.7,432.7,383.7z M434.9,386.3c-0.5,0.3-1.1-0.2-1.2-0.3c-0.1-0.4-0.1-1,0.2-1.2c0.2-0.2,0.9-0.5,1.2-0.2
			C435.5,384.9,435.5,385.9,434.9,386.3z"/>
		<path class="st0" d="M479.7,368.2c0.3-0.4,0.7-0.8,0.7-1.3c0-0.8,0.3-1.9-0.3-2.3c-0.7-0.5-1.9-0.2-2.4,0.4
			c-0.1,0.1-0.3,1-0.5,1.3c-0.5,0.8-1,1.7,0,2.4C478.1,369.5,479,369.1,479.7,368.2z M478.8,365.7c0.4-0.3,0.8,0.3,0.6,0.7l0,0
			c-0.1,0.5-0.4,1.1-0.9,1.3c-0.2,0.1-0.5,0-0.6-0.2C477.6,366.8,478.2,366.1,478.8,365.7z"/>
		<path class="st0" d="M441.4,381.1c-0.5-0.3-1.6-0.2-2.1,0.1c-0.8,0.6-0.8,3.1-0.1,3.7c0.7,0.6,1.4,0.8,1.9-0.1
			C442.1,383.5,442.4,381.5,441.4,381.1z M440.8,383.4c-0.4,0.4-1,0.3-1.2-0.2c-0.2-0.6,0.2-1,0.8-1c0.3,0,0.4,0.3,0.4,0.6
			C441,382.9,441,383.2,440.8,383.4z"/>
		<path class="st0" d="M150.1,407.7c-0.5-0.4-1.1-0.7-1.7-0.9c-1.5-0.5-2.6,0.3-2.5,1.9c0,0.8,0.3,1.6,0.5,2c1,1.9,4,1.8,4.9,0.7
			C152.1,410.6,151.4,408.7,150.1,407.7z M150,410.8c-0.8,0.8-1.8-0.4-2.1-0.8s-0.8-1.3-0.3-1.7c0.5-0.4,1.2,0.4,1.7,0.8
			C149.7,409.3,150.7,410.1,150,410.8z"/>
		<path class="st0" d="M150.2,403.5c0.9-0.7,0.7-3.5-0.3-4.7c-0.7-0.9-2-0.9-2.8-0.2c-1.1,1-1.1,2.9,0.1,4.2
			C148.2,403.9,149.3,404.2,150.2,403.5z M147.8,399.9c0.3-0.4,0.8,0,0.8,0.1c0.2,0.6,0.9,1.2,0.5,1.7c-0.1,0.2-0.6,0.1-0.6,0
			C148.3,401.2,147.3,400.6,147.8,399.9z"/>
		<path class="st0" d="M181.3,365.8c-0.8,0.8-0.7,2.5,0.3,3.7c0.8,0.8,1.7,1.5,2.8,0.6c1.2-0.9,1.4-2.8,0.5-3.8
			C184,365.1,182.3,364.9,181.3,365.8z M183.8,368.5c0,0.1-0.7,0.6-1.2,0.3c-0.6-0.4-0.5-1.4-0.1-1.8c0.3-0.3,1,0,1.2,0.3
			C183.9,367.5,183.9,368.1,183.8,368.5z"/>
		<path class="st0" d="M273.4,368.2c-0.1-0.2-0.1-0.5-0.3-0.6c-0.6-0.5-1.5-0.4-1.9,0.2c-0.3,0.3-0.3,0.6-0.5,1.1s-0.2,1.1,0.6,1.2
			c0.5,0.1,1.3,0.3,1.5,0C273.1,369.6,273.6,368.6,273.4,368.2z M272.4,369.4c-0.1,0.1-0.3,0.1-0.4,0.1c-0.5-0.2-0.5-1,0-1.2
			c0.2-0.2,0.5-0.2,0.5,0.1C272.6,368.7,272.6,369,272.4,369.4z"/>
		<path class="st0" d="M310.5,364.4c-0.4,0-0.9,0.4-1.2,0.8c-0.6,0.6-0.9,1.5-0.2,2.2c0.6,0.7,1.4,0.7,2.1-0.1
			c0.2-0.3,0.8-0.2,1.2-0.8c0.2-0.4,0.4-1.4,0.2-1.7C312.1,364.5,311.2,364.4,310.5,364.4z M311.1,366.2c-0.3,0.1-0.7,0.5-1,0.2
			c-0.1-0.1-0.1-0.5,0.1-0.7c0.3-0.2,0.8-0.4,1-0.1C311.4,365.8,311.2,366.1,311.1,366.2z"/>
		<path class="st0" d="M314.9,368.4c0.9-0.1,1.6-0.7,1.4-1.6c-0.1-0.6-0.5-1.4-0.9-1.5c-0.6-0.1-1.6-0.1-2.2,0.5
			c-0.7,0.7-1,1.8-0.6,2.4C313.1,368.8,314.2,368.5,314.9,368.4z M314.2,366.8c0.3-0.3,0.7-0.5,0.9-0.3c0.3,0.3,0,0.8-0.2,1.1
			c-0.2,0.2-0.7,0.5-1,0.2C313.7,367.5,313.9,367,314.2,366.8z"/>
		<path class="st0" d="M273.8,374.7c0.3,0.1,0.8-0.2,1-0.5c0.6-0.6,1.7-1.2,0.7-2.4c-0.5-0.6-1.8-0.7-2.4-0.2
			C272.5,372.2,272.3,374.4,273.8,374.7z M274.1,372.4c0.1-0.2,0.3-0.3,0.5-0.1c0.4,0.4,0.2,1.3-0.4,1.2
			C273.6,373.4,273.7,372.7,274.1,372.4z"/>
		<path class="st0" d="M394,402.6c0.3,0.2,1.2-0.4,1.8-0.7c0.9-0.5,0.6-1.3,0.1-1.8c-0.6-0.6-0.8-0.9-1.2-1.1
			c-0.8-0.4-2-0.1-2.4,0.7c-0.1,0.2,0,0.5,0,0.9C392.1,401.1,393.2,402.1,394,402.6z M393.9,399.8c0.7,0.1,1.1,1,0.6,1.5
			c-0.1,0.1-0.4,0.2-0.5,0.1c-0.4-0.3-0.6-0.7-0.7-1.2C393.2,399.8,393.6,399.7,393.9,399.8z"/>
		<path class="st0" d="M391.6,417.2c0.3-0.7-0.5-1.4-0.9-2c-0.3-0.4-0.8-0.6-1.2-0.7c-0.4-0.2-0.8-0.4-1.1-0.3
			c-0.8,0.1-1.7,0.2-2.2,0.7c-0.4,0.4-0.4,1.6,0,2.1c0.4,0.6,1.3,0.8,2.1,1.1c0.4,0.1,1-0.1,1.4-0.2
			C390.4,417.7,391.3,417.8,391.6,417.2z M389.4,416.8c-0.6,0.2-1-0.2-1.5-0.4c-0.2-0.1-0.5-0.2-0.5-0.5c0-0.2,0.1-0.4,0.3-0.5
			c0.7-0.4,1.8,0.2,2,0.8C389.8,416.5,389.6,416.8,389.4,416.8z"/>
		<path class="st0" d="M347.2,407.5c-1.6-0.7-3.5-0.2-3.9,0.9c-0.3,1,0.6,2.3,2,2.9c1.7,0.7,3.2,0.4,3.7-0.8
			C349.3,409.4,348.5,408,347.2,407.5z M347.3,410.1c-0.4,0.2-0.9,0-1.2-0.2c-0.4-0.2-1.2-0.6-1-1.1c0.2-0.4,0.9-0.2,1.3-0.1
			c0.4,0.2,1,0.5,1.1,0.9C347.5,409.8,347.4,410,347.3,410.1z"/>
		<path class="st0" d="M352.5,414.3c-0.6-0.3-1.3-0.5-1.8-0.4c-0.8,0.3-1.9,0.7-2.2,1.4c-0.2,0.4,0.5,1.6,1,1.9
			c0.7,0.5,1.4,0.3,1.8,0.5c1.2,0.6,2.2,0.2,2.6-0.9C354.2,415.7,353.5,414.8,352.5,414.3z M352,416.2c-0.2,0.4-0.9,0.2-1.3,0.2
			c-0.2,0-0.5-0.3-0.5-0.6c0.1-0.4,0.8-0.5,1.3-0.3C351.9,415.6,352.1,416,352,416.2z"/>
		<path class="st0" d="M393.4,443.7c1.2,0.5,2.3,0,3-1.2c0.4-0.9-0.2-2.2-1.4-2.7c-1.4-0.6-3.2-0.2-3.6,0.7
			C390.8,441.6,391.6,443,393.4,443.7z M394.3,440.9c0.4,0.1,0.5,0.5,0.4,0.7c-0.2,0.4-0.9,0.2-1.4,0.2c-0.1,0-0.5-0.4-0.4-0.6
			C393.1,440.8,393.8,440.7,394.3,440.9z"/>
		<path class="st0" d="M347.2,420.8c0.9-0.3,2.4-0.4,2.6-1.3c0.2-1-0.8-2.2-1.9-2.6c-1-0.5-2.2,0-2.9,0.4c-0.4,0.3-0.6,1.5-0.4,2.2
			C344.9,420.7,346,421.2,347.2,420.8z M346,418.6c0.2-0.3,0.8-0.3,1.3-0.1c0.4,0.2,1,0.7,0.8,1.1s-1,0.4-1.3,0.2
			C346.4,419.6,345.8,419,346,418.6z"/>
		<path class="st0" d="M334.7,372.8c-0.5,1.1,0,1.9,1,2.4c1.5,0.8,3,0.5,3.5-0.6c0.4-0.9-0.4-2.4-1.5-3
			C336.5,371.1,335.2,371.6,334.7,372.8z M337.6,374c-0.1,0.4-0.7,0.2-0.9,0.2c-0.2-0.1-0.5-0.3-0.4-0.6c0.1-0.2,0.5-0.3,0.6-0.3
			C337.2,373.4,337.7,373.5,337.6,374z"/>
		<path class="st0" d="M351.9,444.7c-0.4,0.3-0.6,1.4-0.3,1.8c0.4,0.8,1.2,1.4,2,1.8c0.6,0.3,1.4,0.3,2.1,0.2c0.3-0.1,0.9-0.9,0.8-1
			c-0.5-1.1-0.7-2.7-2-3.3C353.4,443.7,352.5,444.3,351.9,444.7z M355.1,446.4c0.1,0.2,0.1,0.5,0,0.7l0,0l0,0
			c-0.1,0.2-0.4,0.4-0.7,0.4c-0.2,0-0.4,0-0.6-0.1c-0.2,0-0.4,0-0.5,0c-0.3-0.2-0.5-0.6-0.7-1c-0.1-0.1-0.1-0.2-0.1-0.3l0,0l0,0
			c0-0.1,0-0.1,0-0.2C353.1,444.5,354.7,445.6,355.1,446.4z"/>
		<path class="st0" d="M389.5,411.4c1.6-1,0.3-3.7-0.7-4c-0.9-0.3-2.4,0.4-2.8,1.4c-0.7,1.9,0.9,2.1,2,2.6
			C388.5,411.5,389.2,411.6,389.5,411.4z M388.4,410.1c-0.8,0.4-1.3-0.7-1.1-1.3c0.1-0.3,0.5-0.3,0.7-0.1
			C388.6,408.9,389.1,409.7,388.4,410.1z"/>
		<path class="st0" d="M387.8,436.5c-0.9,0-1.9,0.6-2.3,1.3c-0.5,0.9,0.3,1.7,1.2,2.1c0.1,0.1,0.3,0.1,0.4,0.1c1.2,0.2,2,0,2.8-0.4
			C390.4,439.3,389.3,436.5,387.8,436.5z M387.9,439c-0.3,0-0.6-0.2-0.9-0.4c-0.4-0.3,0.6-1,0.8-0.8c0.3,0.2,0.5,0.4,0.5,0.7
			C388.5,438.8,388.2,439.1,387.9,439z"/>
		<path class="st0" d="M288.8,362.4c0,1.6,1.4,2.6,3,2.6c2,0,4.3-0.7,6.5-1.8l0,0c0.2-0.1,0.4-0.2,0.6-0.3c1.3-0.5,3.4-0.1,4.2,1.2
			c0.3,0.5,0.5,1.1,0.7,1.7c0.2,0.3,0.4,0.7,0.5,1.1c0,0,0,0-0.1,0c0,0,0,0-0.1,0.1c0.1,0.3,0.2,0.6,0.1,0.9
			c0.2,2.4,0.6,4.9,0.5,7.3c0,0.2-0.1,0.4-0.2,0.6c0,0.3,0,0.6-0.2,0.8l0,0c-0.1,0.3-0.1,0.6-0.2,0.9c-0.3,2.1-0.8,4.1-1.3,6.1
			c-0.2,0.3-0.3,0.7-0.5,1c-1.9,3.5-3.1,7.7-7.5,9.4c-0.2,0.1-0.2,0.3-0.3,0.5c0.2,0.1,0.5,0.2,0.7,0.2c0.4,0,0.8-0.1,1.2-0.1
			c-0.2,0.4,0,1.2,0,1.2v1.3v0.8l0.1,0.7l0.2,0.7v0.1l0.1,0.1c0,0.4-0.1,0.9-0.3,1.3c-0.1,0.1-1.7,0.6-2.4,1c0,0-0.1,0.1-0.2,0.1
			c-0.3,0.4-0.5,0.7-0.8,1.1c-0.2,0.6-0.4,1.3-0.7,1.8c-0.2,0.3-0.4,0.5-0.7,0.8c-0.6,0.8-1.2,1.5-1.6,2.4c-1.1,2.1-2,4.3-2.9,6.5
			c-0.2,0.4,0.1,1,0.2,1.5c0.4-0.2,1-0.3,1.3-0.6c1.8-2.1,3.6-4.2,5.4-6.3c0.2-0.3,0.5-0.5,0.8-0.7c0,0.4,0.1,0.7,0.1,1.1
			c-0.3,2.2-0.3,4.4,0.4,6.4c0.3,0.7,0.8,1.3,1.2,1.9c0.5-0.6,1.1-1.1,1.3-1.7c1.7-4,2.2-8.1,1.2-12.4c-0.6-2.4-1.8-5.1-1.5-7.5
			c0-0.5-0.1-0.9,0.1-1.4c1-1.8,2-3.6,3.2-5.3c0.4-0.5,0.7-1,1-1.6c0.3-1.1,1.1-1.9,1.6-3c1-2.2,1.8-4.6,2.3-7
			c0.2-0.8,0.3-1.5,0.5-2.3c0.3,0.8,0.7,1.5,1,2.3c0.1,0.2,0.1,0.5,0.2,0.8c0.2,0.9,0.3,1.9,0.8,2.5c1.4,1.7,1.5,3.7,2,5.6
			c0.3,1.2-0.2,2.2-0.9,3.2c-0.9,1.5-1.8,3-2.5,4.6c-0.6,1.3-0.8,2.7-1.1,4.1c-0.1,0.4,0.2,0.9,0.3,1.4c0.5-0.1,1.2-0.1,1.5-0.4
			c1.2-1.3,2.3-2.7,3.4-4.1c0.3-0.4,0.7-0.8,1-1.1v1.4c0,0.6-0.1,1.6-0.2,2.2c-0.4,1.7-0.8,3.4-1.2,5.1c-0.5,2.8-0.2,5.4,1.3,7.8
			c-0.9,1.3-1.7,2.8-2.3,4.4c-1.1,3-1.4,6.2-2,9.3c-0.2,0.9,0.3,1.8,1.3,1.3c3-1.5,6.7-1.8,9-4.7c1.6-2,2.9-4.4,4.2-6.6
			c0.7-1.3,1.3-2.7,1.9-4.1c0.1-0.2,0.4-0.3,0.6-0.5c0.1,0.2,0.3,0.4,0.4,0.7c1.4,4.9,3.4,9.6,6.4,13.9c0.3,0.4,0.4,1.2,0.2,1.7
			c-2.8,6.7-1,13.1,1.5,19.5c0.2,0.5,0.8,0.9,1.1,1.3c0.5-0.5,1.1-0.9,1.3-1.4c1.2-3.8,2-7.6,1.3-11.5c-0.1-0.4,0.1-0.8,0.1-1.1
			c0.2,0.3,0.4,0.5,0.6,0.8c2.1,2.7,4.2,5.5,6.4,8.2c0.7,0.8,1.6,1.4,2.5,2c0.5,0.3,1.2,0.4,1.7,0.6c0.2-0.7,0.6-1.3,0.5-2
			c-0.2-2.7-1.5-4.9-3.5-6.6c-1.2-1-2.5-1.8-3.8-2.8c-0.3-0.2-0.4-0.5-0.6-0.7c0.3,0,0.6,0,1,0c1,0.1,2,0.4,2.9,0.4
			c1.5-0.1,1.9-1.2,0.9-2.3c-0.4-0.5-1-1.1-1.7-1.3c-2.2-0.7-4.3-1.4-6.5-1.8c-1-0.2-1.7-0.4-2.3-1.1c-4.8-5.4-7.3-11.9-9-18.8
			c-0.2-1-0.4-2-0.5-3c0-0.1,0.1-0.3,0.1-0.4c0.2,0.1,0.4,0.1,0.5,0.2c0.3,0.4,0.7,0.7,1,1.1c2.7,4.2,7,6.1,11.4,7.8
			c1.2,0.5,1.6,0,1.5-1.4c-0.2-5.6-3.3-9.5-7.5-12.8c-1.9-1.5-3.9-2.8-5.8-4.3c-0.4-0.3-0.7-1.1-0.6-1.6c0.4-1.8,0.9-3.6,1.4-5.4
			c0.5-1.9,1.1-3.8,1.8-5.6c0.1,0.2,0.3,0.4,0.4,0.6c0.3,0.4,0.9,0.4,1.3,0.7c0.2-0.4,0.5-0.8,0.5-1.3c0-1.6,0-3.1-0.2-4.7
			c2.3-4.8,5.3-9.3,8.8-13.4h8.5c-0.1,1.1-0.2,2.1-0.3,3.2c-0.2,3.5-0.3,7.1,0,10.6c0.6,7,1.5,14,2.2,21c0.1,1.1,0.3,2.1,0.6,3.1
			c0.3,1.5,1.2,2.9,1,4.3c-0.2,1.2-1.5,2.2-2.2,3.4c-0.2,0.3-0.5,0.8-0.5,1.2c0,0.7-0.1,1.9,0.2,2c1,0.4,1.2-0.6,1.5-1.3
			c0.3-0.8,0.7-1.6,1.1-2.3c0.1-0.2,0.3-0.5,0.5-0.7c0.2,0.3,0.4,0.5,0.6,0.8c1.6,3.9,3.2,7.8,4.7,11.6c0.2,0.6,0.4,1.2,0.4,1.9
			c0.1,3.5,0,7.1,0.1,10.6c0,1.7-0.6,3.1-1.6,4.5c-0.7,1-1.2,2.2-1.6,3.4c-0.1,0.3,0.2,0.7,0.4,1.1c0.3-0.2,0.6-0.4,0.8-0.7
			c0.5-0.7,1-1.5,1.5-2.3c0.6-0.9,0.9-0.4,1,0.3c0.3,2.2,0.7,4.4,0.9,6.5c0,0.8-0.5,1.8-1,2.5c-3.3,4.2-5,9.1-6,14.2
			c-0.2,1.1,0,2.4,0.2,3.6c0.1,0.5,0.5,1.1,1,1.2c0.3,0.1,1-0.4,1.2-0.8c1.8-2.7,3.6-5.4,5.4-8.2c0.3-0.4,0.5-0.8,0.8-1.2
			c0.2,0.5,0.4,1,0.4,1.5c0.4,3.2,0.6,6.4,2.4,9.2c1.1,1.6,2.4,3.2,3.8,4.6c1.1,1.1,1.9,0.8,2.3-0.8c1-4,0-7.6-2-11
			c-1.3-2.2-2.9-4.2-4.3-6.4c-0.4-0.6-0.6-1.2-0.9-1.9c-0.2-0.6-0.4-1.1-0.6-1.7c0.6,0.3,1.2,0.6,1.8,0.9c2,1.1,4,2.4,6.1,3.4
			c0.5,0.2,1.3-0.1,2-0.2c-0.1-0.6,0-1.3-0.3-1.8c-1-1.5-2-3.1-3.3-4.4c-1.6-1.6-3.4-3-5.2-4.3c-1.3-0.9-2.4-1.9-2.6-3.5
			c-0.4-2.6-1.1-5.1-0.2-7.8c0.3-1-0.1-2.3-0.2-3.4c0-0.3-0.2-0.7-0.2-1c0-1.1,0.1-2.2,0.2-3.3c0.6,0.8,1.1,1.7,1.7,2.5
			c3.1,4.7,6.8,8.7,11.5,11.8c2.2,1.5,4.3,3.3,6.4,5c0.6,0.4,1,1.1,1.6,1.4c3.2,1.6,4.1,4.7,4.9,7.8c1.3,5.6,4.2,10.2,8.5,13.9
			c0.7,0.6,1.7,0.8,2.6,1.2c0.1-1,0.5-2,0.4-3c-0.3-2.9-1.6-5.4-3.2-7.8c-0.3-0.4-0.4-0.9-0.5-1.3c0.4,0.1,0.9,0.2,1.3,0.4
			c3.3,1.4,6.6,2.9,10,4.3c0.5,0.2,1.3,0,1.9,0c-0.2-0.6-0.2-1.5-0.6-1.9c-2.3-2.1-4.7-4.1-7.2-5.9c-1.2-0.9-2.6-1.5-3.9-2.2
			c-0.2-0.1-0.4-0.3-0.6-0.5c0.2-0.1,0.5-0.3,0.7-0.2c1.3,0,2.7,0.1,4,0.1c0.7,0,1.4,0,2.1-0.3c1.2-0.4,1.4-1.4,0.3-2
			c-1-0.6-2.1-1.1-3.3-1.4c-2.3-0.6-4.7-1-7.1-1.4c-0.8-0.1-1.1-0.3-1.2-1.3c-0.2-1.8-1.7-3-3.5-3.1c-1.7-0.1-2.5,1.4-1.8,3.1
			c0.2,0.5,0.4,1,0.6,1.5c-0.5-0.1-1.1-0.1-1.6-0.2c-0.5-0.2-1-0.4-1.5-0.7c-0.5-0.4-0.9-0.9-1.3-1.4c0.5-0.2,1-0.3,1.5-0.5
			c0.3-0.1,0.5-0.4,0.8-0.6c-0.2-0.2-0.4-0.4-0.6-0.4c-6.1,0-9.5-4.5-13.5-7.9c-4-3.3-6.4-7.9-9.2-12.2c-1-1.6-1.5-3.5-2.6-5.1
			c-1.4-2-1.9-4.6-2.7-6.9c-3-8-3.9-16.4-4.4-24.9c-0.1-0.9-0.3-1.8-0.4-2.7c0-0.3,0.1-0.6,0.1-0.9c0.5,0.3,0.7,0.7,1.6,1
			c0.6,0.6,1.1,1.2,1.7,1.8c1,3,2,6,3.5,8.8c0.6,1.2,1.6,1.8,2.6,1.7c0,3.4,1.3,6.5,3.3,9.5c3.3,5.1,7.8,8.8,12.9,11.8
			c0.4,0.2,1,0.5,1.3,0.2s0.2-0.9,0.1-1.3c-1.7-5.5-4.2-10.6-7.3-15.3c-0.8-1.2-1.4-2.4-2.1-3.7c-0.1-0.2-0.1-0.4-0.1-0.6
			c0.2,0,0.4-0.1,0.6,0c0.9,0.5,2.1,0.8,2.7,1.5c3.6,3.8,7,7.6,10.5,11.4c1.1,1.2,2.2,2.4,3.3,3.6c0.3,0.3,0.9,0.8,1.3,0.5
			s0-1-0.3-1.3c-1.9-2.4-3.9-4.9-5.9-7.2c-1.4-1.7-2.9-3.3-4.3-5c-0.2-0.2-0.3-0.5-0.4-0.7c0.2,0,0.5,0,0.7,0.1
			c3.9,1.4,7.7,2.7,11.5,4.1c1.6,0.6,2.8,1.6,4,2.9c2.8,3,5.8,5.8,8.9,8.5c0.5,0.5,1.5,0.5,2.3,0.7c0.2-0.8,0.6-1.6,0.5-2.4
			c-0.5-4.1-6.9-7.8-7-7.6c-3.4-1.5-6.7-3-10.1-4.5c-0.3-0.1-0.5-0.3-0.7-0.4c0.3-0.2,0.5-0.4,0.8-0.5c1.1-0.3,2.2-0.4,3.3-0.7
			c0.7-0.1,5.7-2.4,6.4-2.8c0.1-0.1,0.2-0.2,0.3-0.3c0.6,0.7,1.4,1.3,2.3,1.8c3.8,2.2,7.7,4.3,11.5,6.5c2.1,1.2,4.4,1.5,6.8,1.4
			c2.5-0.1,4.9-0.1,7.4,0c1.5,0,3.1,0.1,4.6,0.1c-0.3,0.6-0.5,1.3-0.7,1.9c-0.3,0.7-0.1,2.3,0.3,2.4c0.8,0.4,2.2,0.4,2.9,0
			c1.9-1.1,2.9-2.8,3.6-4.6c0.2-0.2,0.4-0.6,0.4-0.9c0.2-0.6,0.4-1.1,0.6-1.7c0.5-1.5,1-3.1,1.2-4.7c0.3-2,1.3-3,3-3.9
			c4.7-2.4,9.3-5.1,14-7.6c0.3-0.2,0.7-0.3,1.1-0.5c-0.1,0.5-0.1,1-0.3,1.4c-1.9,3.5-3.7,7-5.7,10.5c-2.2,3.9-4.6,7.7-6.9,11.5
			c-0.4,0.6-0.7,1.2-1,1.9c-1.4,2.4-3.1,4.3-5.9,5.1c-3.7,1.1-6.8,3.2-8.4,7c-0.4,0.9-1.4,2.2-0.7,3c0.7,0.9,2.3,0.4,3.2,0
			c2.2-1,4.3-2.4,6.5-3.6c0.4-0.2,0.7-0.4,1-0.6c0.1,0.5,0.2,0.9,0.2,1.4c0,0.9-0.1,1.7,0.1,2.5c0.1,0.6,0.4,1.6,1.1,1.7
			c0.6,0.1,1.2-0.3,1.3-0.8c0.6-1.7,0.9-3.9,1.3-5.7c0.2-1,0.4-2.1,0.4-3.2c0-4.5,2.1-8.3,4.5-11.9c5.1-7.5,9.5-15.5,13-23.9
			c1.2-2.9,2.4-5.8,3.6-8.6c0.3-0.8,0.5-1.6,0.7-2.4c0.1-0.1,0.2-0.2,0.3-0.3c-0.1,0.1-0.2,0.2-0.3,0.3c0.1,0.4,0.4,0.7,0.4,1.1
			c0.1,4,0.1,7.9,0.1,11.9c0.1,5.7,0.1,11.4,0.2,17c0,1.3-0.5,1.8-1.7,2.2c-4.4,1.8-7.8,5-10.6,8.6c-1.6,2-2.7,4.3-3.9,6.6
			c-0.7,1.3-0.1,2,1.4,2c0.5,0,1-0.2,1.4-0.3c3.7-1.4,7.1-3.3,9.7-6.4c0.2-0.3,0.5-0.4,0.8-0.7c0,0.3,0.1,0.7,0,1
			c-1.5,6.2-4.2,11.8-7.5,17.1c-1.9,3.1-4.3,4.5-4.7,4.5c-1.5,0.2-3,0.2-4.5,0.3c-5,0.4-9.3,2.6-12.7,6.2c-0.5,0.5-0.7,1.5-1,2.2
			c0.8,0.3,1.6,0.9,2.3,0.8c3.2-0.6,6.4-1.4,9.5-2.1c0.4-0.1,0.8-0.2,1.2-0.3c-0.1,0.4-0.2,0.8-0.3,1.2c-0.8,2.3-1.7,4.5-2.4,6.8
			c-0.4,1.2-0.7,2.8,0.7,3.4c1.4,0.7,2.2-0.8,2.7-1.8c1.1-2,2-4,3-6.1c0.2-0.5,0.5-1,0.8-1.5c0.1,0.5,0.2,1,0.3,1.5
			c0.1,0.8,0.2,1.5,0.4,2.3c0.3,1.2,0.8,2.2,2.2,2.3c1.4,0.1,2.1-0.8,2.4-2c0.3-1.4,0.6-2.8,0.7-4.2c0.2-2.8,1-5.6,0.3-8.3
			c-0.9-3.4,3.8-10.7,5.7-15c0.2-0.3,0.4-0.6,0.7-1c0.2,0.4,0.4,0.7,0.6,1.1c0.6,1.4,1.1,2.8,1.8,4.1c0.2,0.4,0.9,1.1,1.3,0.8
			c0.4-0.2-0.1-0.9-0.2-1.3c-0.2-0.7-0.4-1.4-0.7-2c-1.9-3.9-2-7.8,0-11.8c1-1.9,1.8-9.7,1.8-10.1c0-1.6,0.1-3.1,0.2-4.7
			c0-0.3,0.2-0.6,0.3-0.9c0.2,0.2,0.4,0.4,0.5,0.6c1,2,1.8,4.2,3.1,6.1c1.3,1.9,2.9,3.7,4.7,5.2c1.8,1.5,3,0.9,2.9-1.4
			c-0.2-2.8-0.7-5.7-1.6-8.3c-1.5-4.5-4-8.5-7.1-12c-0.4-0.4-2.6-2.7-3.2-3.2c0-0.6-0.1-1.3-0.1-1.9c-0.1-3.6,0.2-7.3,0.7-10.8
			c0.3-1.9,0.3-3.8,0.2-5.7h5c-0.3,0.5-0.5,1.1-0.6,1.7c-0.2,1.4,0.7,2.3,1.6,2.9c0.3,0.2,1.2,0.1,1.7-0.4c1-1,0.9-2.6,1-3.9
			c0-0.1,0-0.2,0-0.3h6.7c0.1,2.4,0.2,4.8,0.2,7.2c0,1.3-0.6,2.6-1.2,3.8c-1.5,3.3-3.2,6.5-4.7,9.8c-0.5,1.2-0.8,2.6-1,3.9
			c-0.1,1.3,0.5,1.6,1.7,1c3.5-1.8,5.5-4.6,6.2-8.4c0.1-0.4,0.3-0.9,0.5-1.3c0.3,0.4,0.6,0.7,0.9,1.1c1.8,2.6,3.5,5.2,5.3,7.7
			c0.4,0.6,1.6,1.1,2.1,0.9c0.6-0.2,1.2-1.4,1.1-2c-0.1-1.7-0.2-3.6-1-5.2c-1.8-3.8-3.3-7.8-6.3-10.8c-0.7-0.7-0.1-0.8,0.4-1.1
			c3.2-1.5,6.4-3,9.6-4.5c0.3-0.1,0.6-0.2,0.7-0.5c0.3-0.6,1-1.1,1.1-1.7H528c0.8,0,1.5-0.3,1.9-0.9c1-1.4-0.3-3.2-1.8-2.9H325.5
			c-1.7,1.5-0.8,3.4,0.8,3.7c-0.3,1.6-0.6,3.2-1.2,4.8c-0.3,0.7-0.7,1.1-1.4,1.5c-1.5,0.9-2.8,2-4.2,3.1c-0.4,0.3-0.7,0.9-0.8,1.4
			c-0.4,1.1,0.2,1.8,1.3,1.4c0.7-0.2,1.3-0.7,2-1.1c0.2-0.1,0.5-0.2,0.7-0.3c-0.1,0.2-0.1,0.5-0.2,0.7c-0.6,1-1.4,2-1.9,3
			c-0.3,0.6-0.6,1.3-0.8,1.9c-2,1.2-3.6,2.9-4.8,5.1c0-0.1,0-0.2-0.1-0.3c-0.6-0.7-1.3-1.5-2.1-2c-1.1-0.7-1.9-1.5-2.4-2.8
			c-0.9-2.5-1.9-5.1-2.9-7.6c-0.2-0.4-0.3-1-0.3-1.4c0-2.2,0.1-4.3,0.1-6.5c0.2-1.1,0.8-2,1.7-2.6c0.2,0.2,0.3,0.3,0.5,0.5
			c0.4,0.4,0.8,1.1,1.4,0.5c0.2-0.2-0.2-1-0.4-1.5c-0.1-0.1-0.2-0.3-0.3-0.4 M294.5,407.3c-1.4,2.1-3,4.1-4.6,6.1
			c-0.2,0.3-0.6,0.8-0.9,0.6c-0.3-0.2,0-0.8,0.2-1.2c1.4-2.7,4.4-8.9,6.4-9.8c0.2-0.2,0.6-0.4,0.9-0.5c0,0.3,0,0.6-0.1,0.9
			C295.7,404.8,295.3,406.1,294.5,407.3z M298.1,403.5c1.1,3.9,0.8,7.8-0.6,11.6c-0.1,0.2-0.2,0.7-0.6,0.7c-0.3,0-0.2-0.4-0.2-0.6
			c-1-4-0.3-7.9,0.8-11.8c0-0.1,0.2-0.2,0.3-0.4C297.9,403.2,298.1,403.3,298.1,403.5z M341,434.7c2.6,1.7,4.9,3.5,5.9,6.5
			c0.1,0.4,0.3,1,0,1.2s-0.7-0.2-0.9-0.4c-1.9-2.2-3.7-4.4-5.5-6.6c-0.1-0.2-0.3-0.6-0.1-0.8C340.5,434.4,340.8,434.6,341,434.7z
			 M338.6,429c1.6,0.5,3.2,1.1,4.8,1.6c0.2,0.1,0.5,0.4,0.4,0.6s-0.5,0.2-0.7,0.2c-1-0.3-2-0.6-3.1-0.9c0,0-1.1-0.6-1.7-0.9
			c-0.1-0.1-0.4-0.3-0.3-0.5C338.2,429,338.5,429,338.6,429z M333.2,428.3c0.3,0,0.4,0.4,0.5,0.6c2.1,4.5,2.5,9.2,1,14.2
			c-0.1,0.1-0.1,0.7-0.4,0.7s-0.4-0.5-0.5-0.8c-0.3-0.8-0.6-1.6-0.9-2.4c-1.3-3.8-1.4-7.6-0.2-11.5
			C332.7,428.9,332.8,428.4,333.2,428.3z M363.5,456.6c0.3,0.3,0.4,0.5,0.6,0.6c0.6,0.9,1.3,1.7,1.8,2.6c1.7,2.9,3.5,5.9,3.2,9.5
			c-0.1,0.6,0,1.5-0.5,1.7c-0.6,0.2-1.3-0.6-1.7-1c-3.3-3.7-3.1-8.3-3.6-12.8C363.2,457.1,363.4,456.9,363.5,456.6z M362.7,445.7
			c1.3,1,2.6,2,3.8,3.1c1.3,1.3,2.4,2.7,3.6,4.2c0.2,0.2,0.3,0.7,0.1,0.9c-0.2,0.2-0.6,0-0.8-0.1c-2.4-1.2-6.9-4.6-7.3-7.4
			c-0.1-0.3-0.1-0.6-0.1-0.9C362.2,445.5,362.5,445.6,362.7,445.7z M396.5,466.2c0,0.2,0.4,0.6,0.1,0.8c-0.4,0.3-0.8-0.3-1.1-0.5
			c-3.9-3.6-6.4-8.1-7.4-13.3c0-0.2,0.1-0.5,0.1-0.7c0.2,0.1,0.4,0.1,0.5,0.2C392.3,456.7,395.4,460.9,396.5,466.2z M404,459.1
			c0.4,0.3,1.1,0.8,0.9,1.3c-0.3,0.4-1,0-1.4-0.2c-3-1.5-6-2.8-8.9-4.5c-1.6-0.9-2.9-2.3-4.3-3.5c-0.3-0.3-0.4-0.7-0.7-1
			c0.4,0,0.9,0,1.3,0.1C393.8,451.1,400.8,456.8,404,459.1z M391.7,447.4c2.4,0.7,4.8,1.1,7.1,1.6c0.4,0.4,1.1,0.5,1,0.9
			s-0.8,0.3-1.2,0.2c-2.3-0.2-4.5-0.5-6.8-0.7c-0.9-0.1-3.5,0.3-3.7,0.2c-0.4-0.3-0.8-0.8-1-1.3c-0.1-0.1,0.2-0.4,0.4-0.7
			C389,448.5,390.3,447,391.7,447.4z M387,443.9c0.2-0.4,0.9-0.5,1.5-0.3c0.5,0.3,1,1,0.8,1.4c-0.2,0.5-1.2,0.4-1.6,0.2
			C387.3,445.1,386.8,444.3,387,443.9z M360.6,453.3c-0.1,1.5-0.1,3.1-0.7,4.3c-1.3,2.5-3.1,4.7-4.7,7.1c-0.2,0.2-0.5,0.6-0.8,0.4
			c-0.2-0.1-0.2-0.5-0.1-0.8c0.6-2.7,1.3-5.3,1.8-7.5c1-1.6,1.6-2.8,2.4-3.9c0.3-0.4,0.6-1.1,1.1-1.1
			C360.2,451.9,360.6,452.8,360.6,453.3z M395.8,406.1c0.3,0,0.7,0.2,1.1,0.3c2.2,1.3,4.2,3,4.8,5.7c0.1,0.3,0,0.7-0.1,1
			c-0.3-0.1-0.7-0.2-0.9-0.4c-1.9-1.8-3.8-3.6-5.6-5.5c-0.2-0.2-0.2-0.8-0.3-1.1C395.2,406.1,395.5,406.1,395.8,406.1z M437.4,419.9
			c-1.5,1.9-5.4,3.6-7.9,5c-0.3,0.2-0.9,0.3-1.2,0c-0.3-0.3,0-0.9,0.2-1.2c1-1.3,1.9-2.6,3.1-3.7C432.8,419,441.1,415.9,437.4,419.9
			z M439,426c0,0.1-0.1,0.3-0.2,0.2c-0.1,0-0.2-0.2-0.2-0.3c0.2-1.1-0.6-3.3,1-5.9c0.1-0.1,0.3-0.2,0.6-0.4c0.1,0.3,0.4,1,0.4,1.1
			C440,424.1,439.3,424.9,439,426z M434.7,443.8c-0.4,0-1.1,0.1-1.3-0.3c-0.2-0.4,0.4-0.8,0.5-0.9c2.6-3.4,6.4-4.5,10.3-4.8
			c1-0.1,2.1,0.1,3.1,0.2c-0.3,1.4-1.5,2.1-2.3,2.9c0,0-0.1,0.1-0.2,0.1C441.7,442.6,438.3,443.6,434.7,443.8z M448.9,440.1
			c-1,2.6-3.2,9.3-4.7,11.1c-0.5,0.7-1,1.1-1.4,1c-0.3-0.1-0.3-0.5-0.3-0.7c0.8-3,2.6-10.1,5.7-11.9c0.2-0.1,0.3-0.2,0.5-0.3
			C448.8,439.6,449,439.9,448.9,440.1z M453.3,443.3c-0.1,1.5-0.2,3-0.6,4.4c-0.2,0.7-0.5,1.8-1.2,1.8s-1-1.2-1.1-1.9
			c-0.1-1.5-0.1-3.1,0-4.7c0.2-1.8,0.5-3.5,0.9-5.3c0.1-0.6,0.4-1.3,0.8-1.7c0.3-0.4,0.6-0.8,0.9-1.2
			C453,437.3,453.4,441,453.3,443.3z M463.3,407.2c-0.2,0.7-0.4,1.5-0.8,2.1c-1.6,2-3,4.2-5,5.8c-1.9,1.5-4.3,2.4-6.5,3.5
			c-0.3,0.2-1,0.3-1.2,0c-0.3-0.3,0-0.9,0.2-1.2c1.3-2.1,2.4-4.3,4.2-6.2c2-2.1,4.6-3.6,7-5.4c0.6-0.4,1.4-0.6,2.2-0.8
			C463.4,405.7,463.5,406.5,463.3,407.2z M471.8,392.7c2.2,3.7,3.4,7.8,3.9,12.1c0.1,0.6,0.3,1.6-0.2,1.9c-0.6,0.3-1.4-0.4-1.8-0.9
			c-1.5-1.8-3.1-3.6-4.1-5.6c-1.3-2.7-2.3-5.7-3-8.6c-0.5-2.3-0.9-4.7-1.1-7.1C467.3,386.9,470.5,390.5,471.8,392.7z M473,367.1
			c0,0.1-0.5,0.2-0.7,0.1c-0.4-0.5,0.1-1.3,0.3-1.9c0.1-0.2,0.4-0.5,0.7-0.5c0.1,0,0.3,0.1,0.3,0.2
			C473.8,365.7,473.2,366.4,473,367.1z M446.5,364.4c-0.1,1-0.1,2-0.2,3c0,0.3-0.1,0.7-0.3,1.4c-0.3-0.5-0.7-0.8-0.7-1.1
			c-0.1-1.1-0.1-2.2-0.2-3.3H446.5z M433.8,364.4h4.3c-0.3,0.4-0.6,0.8-1,1.2c-0.4,0.5-1.3,0.7-1.9,0.7c-0.8,0-1.6-0.3-2.4-0.4
			C433.1,365.4,433.4,365,433.8,364.4z M359.3,364.9c-0.1,0.8-0.9,0.7-1.1,0.6c-0.3-0.1-0.5-0.6-0.4-0.8c0.1-0.3,0.6-0.3,0.9-0.2
			C358.9,364.5,359.3,364.6,359.3,364.9z M360.9,364.4L360.9,364.4C360.9,364.4,360.8,364.4,360.9,364.4L360.9,364.4z M325.2,375.2
			c0.1-0.2,0.2-0.5,0.2-0.7c0.1,0.3,0.4,0.5,0.4,0.8c0.2,1.3,0.7,2.5,1.3,3.6c-0.5-0.2-1.2-0.3-1.7-0.2c-0.4,0.1-0.8,0.2-1.3,0.3
			C324.5,377.7,324.9,376.4,325.2,375.2z M320.7,374.9c-0.1,0.1-0.4,0.2-0.6,0.1c-0.1-0.1,0-0.5,0.2-0.6c1-0.9,2-1.7,3-2.5
			c0.1-0.1,0.3-0.1,0.4,0c0,0,0,0,0,0.1s0,0.2-0.1,0.3c0,0,0,0.1-0.1,0.1c-0.3,0.4-1,1.1-1,1.1C322,373.9,321.3,374.4,320.7,374.9z
			 M323.1,376.6c0.2-0.1,0.3-0.4,0.5-0.3s0.2,0.4,0.1,0.6c-0.3,0.8-0.6,1.6-0.8,2.4c-0.6,0.2-1.2,0.4-1.7,0.7
			C321.6,378.8,322.3,377.7,323.1,376.6z M316.3,388.9c0.6-0.2,1.1-0.4,1.7-0.6c0,0.3,0,0.6-0.2,0.8c-0.1,0.1-0.2,0.1-0.4,0.2
			c-0.1,0.1-0.2,0.2-0.4,0.2c-0.2,0.1-0.4,0-0.6-0.1l0,0l0,0C316.4,389.2,316.3,389.1,316.3,388.9z M308.2,398.1
			c-0.1,0.1-0.3,0.4-0.5,0.3s-0.3-0.5-0.2-0.7c0.4-1.3,0.8-2.7,1.4-4c0.5-1.1,1.2-2.2,1.8-3.3c0.2-0.1,0.3-0.3,0.5-0.4
			c0.1,0.2,0.2,0.5,0.2,0.7C311.9,392.9,309.6,396.6,308.2,398.1z M312.4,401.4c0.1-0.8,0.4-1.6,0.6-2.4c0-0.2,0.1-0.3,0.2-0.6
			c0.2,0.1,0.3,0.2,0.4,0.4c0.8,3.2,2.2,6.3,1.1,9.6c-0.6,0.5-1.1,1-1.5,1.5c-0.2-0.2-0.3-0.6-0.4-0.8
			C311.5,406.6,311.9,404,312.4,401.4z M314.6,393.9c0.4-0.2,0.8,0.2,1.1,0.4c0.8,0.6,1.6,1.2,2.8,2.1c1,1.4,2.2,3.2,3.4,4.9
			c0.1,0.2,0.3,0.5,0.1,0.6c-0.2,0.2-0.5,0-0.7-0.1c-1.8-1.2-3.7-2.3-5.3-3.7c-0.8-0.7-1.3-1.8-1.7-2.9
			C314.1,394.9,314.2,394.1,314.6,393.9z M323.7,408.1c-0.6,1.1-1.1,2.3-1.5,3.4c-0.9,1.7-1.9,3.1-2.6,4.8c-1.5,3.7-4.3,5.7-7.9,7
			c-1.8,0.6-1.9,0.6-1.7-1.4c0.4-3.6,1.5-6.8,3.5-9.5c0.4,0.1,0.7-0.2,1-0.8c0.1-0.2,0.2-0.5,0.3-0.7c0.6-0.6,1.2-1.3,2-1.8
			c1.8-1.4,3.9-1.9,6.2-2C323.7,407,324.1,407.2,323.7,408.1z M323.8,403.3c-0.1,1.4-0.3,1.9-1.8,2.1c-2.4,0.3-4.4,1.1-6.1,2.2
			c0-0.1,0-0.2,0.1-0.3c0.5-2.5-0.2-4.9-0.8-7.2c-0.1-0.4-0.1-0.8-0.1-1.2c0.3,0.2,0.6,0.4,0.9,0.6c2,1.4,4.1,2.9,6.1,4.3
			c0.3,0.2,0.9,0.4,1.1,0.2c0.3-0.2,0.4-0.8,0.4-1.1c-0.2-0.9-0.4-1.8-0.9-2.6c-2.1-3.4-4.7-6.4-8.2-8.4c-0.6-0.3-1.2-0.9-1.4-1.5
			c-0.5-1.6-0.8-3.3-1.2-4.9c-0.1-0.6,0-0.9,0.6-0.5s1.1,0.8,1.7,1.2c0.2,0.1,0.4,0.2,0.6,0.2c0,0.1-0.1,0.1-0.1,0.1
			c-0.3,0.6-0.8,1.5-0.3,2c0.3,0.4,1,0.5,1.6,0.4c0,0.3,0,0.6,0,0.9c0,0.2,0.6,0.6,0.9,0.5c0.5-0.1,1.1-0.3,1.4-0.7
			c0.4-0.5,0.8-1.1,0.9-1.8c2-0.7,3.9-1.4,5.8-2.1c0.5-0.2,1.1-0.2,1.6-0.4c-0.1,0.5-0.1,1.1-0.3,1.6
			C324.2,392.4,324,397.8,323.8,403.3z M327.1,397.1c1.4,1,3,1.9,4.4,3c2.9,2.5,5.5,5.1,6.6,8.9c0.2,0.7,0.7,1.6,0.1,2.1
			c-0.5,0.4-1.3-0.2-1.9-0.4c-0.4-0.1-1.2-0.4-1.2-0.4c-1.1-0.6-2.4-1.1-3.2-2c-1.9-2-3.8-4-5.2-6.3c-0.7-1.2-0.5-3-0.6-4.5
			C325.8,396.4,326.5,396.6,327.1,397.1z M326.7,382.4c-1.6,1.4-3.5,2.3-5.4,3c-0.3,0.2-0.6,0.3-0.9,0.3c-1,0.3-1.9,0.6-2.9,0.8
			c-0.2,0-0.7,0-0.8-0.4c-0.1-0.6,0.2-1.1,0.7-1.5c0.1-0.1,0.1-0.2,0.2-0.3c0.1-0.1,0.2-0.2,0.2-0.3c0-0.1,0.1-0.3,0.2-0.4
			c0.7-0.7,1.5-1.3,2.4-1.6c0.4-0.3,0.9-0.5,1.3-0.6c0.5-0.3,1.1-0.6,1.7-0.7c0.1,0,0.2,0,0.3,0h0.1h0.1c0.1,0,0.1-0.1,0.2-0.1
			s0.2,0,0.3,0c0.3-0.1,0.7-0.1,1-0.2c0.2,0,0.4,0,0.5,0.1c0.2,0,0.4,0,0.6,0s0.4,0.1,0.6,0.3c0.1,0.1,0.2,0.2,0.3,0.3
			C327.7,381.6,327.1,382.1,326.7,382.4z M329.4,378c-0.2,0.4-0.4,0.7-0.7,0.9c-0.8-1.4-1.3-2.8-1.6-4.3c-0.2-0.6-0.3-1.2-0.3-1.8
			c0-0.1,0-0.1,0-0.2c-0.1-0.2-0.1-0.3,0-0.5c0-0.4,0-0.7,0-1.1h0.1c0.4,0.1,0.6,0.3,0.8,0.6c0.1,0,0.2,0,0.2,0.1
			c0.6,0.3,0.9,0.8,1.2,1.3c0.2,0.3,0.4,0.7,0.5,1.1l0.1-0.1c0.3,0.7,0.5,1.5,0.7,2.2C330,376.8,329.7,377.4,329.4,378z
			 M330.5,381.2c-0.2,0.1-0.3-0.1-0.4-0.2c0.2-0.4,0.3-0.8,0.5-1.2c0,0.2,0,0.4,0,0.6C330.6,380.7,330.7,381.1,330.5,381.2z
			 M332.8,371.6c-0.6,1.1-1.2,2.2-1.8,3.3c-0.4-1.6-1-3.1-2-4.6c0.1-0.5,0.7-0.7,1.9-1c1.1-0.3,2.3-0.5,3.5-0.8
			C333.9,369.5,333.3,370.5,332.8,371.6z M337.2,365.3c-0.7,0.9-1.5,1.1-2.7,1.4c-2.3,0.5-4.7,0.9-6.9,1.9c-0.1-0.1-0.2-0.2-0.3-0.3
			c-0.3-0.3-0.4-0.9-0.3-1.3c0.2-0.8,0.3-1.7,0.5-2.5h10.4C337.7,364.7,337.5,365,337.2,365.3z M356.2,364.4c-0.2,1,0.4,2,1.5,2.5
			c0.2,0.1,0.4,0.1,0.6,0.1c-0.4,0.4-0.8,0.8-1.2,1.2c-0.2,0.2-0.3,0.3-0.5,0.5c-1-1.4-2.1-2.9-3.1-4.3L356.2,364.4L356.2,364.4z
			 M352.5,380c0.2,0.6,0.4,1.1,0.6,1.7c-2-2.5-3.3-5.5-3.1-9.1c0.1-2.5,0.4-5,0.6-7.4c0-0.3,0.2-0.5,0.3-0.7
			c0.2,0.2,0.4,0.3,0.6,0.5c0.8,1.2,1.5,2.5,2.4,3.5c0.4,0.5,0.9,1,1.4,1.5c-0.4,0.4-0.8,0.8-1.1,1.3
			C352.1,373.9,351.4,376.8,352.5,380z M359.1,392c-0.2,0-0.3-0.1-0.4-0.3c-1.3-1.9-2.6-4.6-2.4-7c-0.4-1-0.7-2.1-0.6-3.3
			c0-0.2,0.1-0.3,0.1-0.4c-0.2-0.6-0.4-1.3-0.6-1.9s-0.3-1.2-0.4-1.9c-0.1-2.1,0.6-3.8,2-5.3c0.1-0.1,0.2-0.2,0.3-0.3l0,0l0.1-0.1
			c0.1-0.1,0.2-0.3,0.3-0.4c0.1-0.2,0.2-0.4,0.4-0.5c0.1-0.1,0.3-0.2,0.4-0.2c1.9-1.9,3.8-3.7,5.7-5.6c0.1-0.1,0.2-0.2,0.3-0.3h7.1
			c-0.5,1.7-1,3.4-1.6,5.1c-2.2,6.1-5.3,11.8-8.4,17.5c-0.1,0-0.1,0.1-0.1,0.1C360.3,388.6,359.6,390.2,359.1,392z M361,392
			c0.1-0.2,0.1-0.5,0.2-0.7l0.1-0.1c0,0,0,0,0-0.1l0,0c0.1-0.3,0.2-0.5,0.3-0.8c0.4-0.5,0.6-1.1,0.7-1.7c0-0.1,0.1-0.2,0.1-0.2
			c4.5-7.7,8.4-15.6,11.5-24h5.4c0.3,0.9,0.5,1.8,0.8,2.8c0.4,1.4,0.4,2.8-0.4,4.1c-1.1,1.8-2.1,3.8-3.4,5.4
			c-3.8,4.9-8.2,9.1-12.8,13.1c-0.4,0.6-0.8,1.3-1.3,1.9c-0.1,0.2-0.2,0.5-0.6,0.6C361.4,392.4,361.1,392.2,361,392z M370.7,403.8
			c1.5,2.6,2.7,5.3,3.9,8c0.3,0.6,0.2,1.3,0.3,2c-0.6-0.3-1.2-0.5-1.6-0.8c-4.3-3.1-7.7-6.9-10.1-11.6c-1-2.1-1.6-4.4-1.3-6.7
			c0.1-0.1,0.2-0.2,0.3-0.2c0.4-0.4,0.8-0.8,1.3-1.2c0.6,0.6,1.1,1.1,1.5,1.6C366.9,397.8,369,400.8,370.7,403.8z M376.8,397.3
			c-4.3-1.2-8.2-2.9-11.8-5.5c3.3-3.2,6.6-6.4,10-9.5c2.6-2.4,4.5-5.4,6.3-8.4c1.4-2.3,1.7-4.8,0.8-7.4c-0.2-0.7-0.4-1.3-0.7-2h4.3
			c0.9,0.7,1.8,1.4,2.7,2.1c0.6,0.4,2,4.4,2.2,6c0.8,5.6,1.9,11.2,2.8,16.8c0.2,1.1,0.5,2.2,0.9,3.3c-1.1,0-2.3,0.2-3.4,0.6
			c-4,1.3-7.9,2.8-11.9,4.2C378.5,397.5,377.6,397.5,376.8,397.3z M395.6,395c-0.8,0.6-1.7,1.4-2.7,1.6c-3.7,0.9-7.5,1.5-11.2,2.2
			c-0.4,0.1-0.9-0.3-1.3-0.5c0.4-0.3,0.7-0.6,1.1-0.8c3.6-1.2,7.1-2.4,10.7-3.5c0.7-0.2,1.7-0.9,2.6-0.8c0.3,0.5,0.6,1,0.9,1.5
			C395.7,395,395.7,395,395.6,395z M425.8,402.7c-0.4,0-0.8,0-1.2,0l0,0h-0.1c-1.5-0.3-3,0.2-4.5,0.1c-0.4,0-0.8-0.1-1.2-0.2v0.1
			c-0.3,0-0.7,0-1,0c-3.2,0.1-6.2-0.3-8.9-2.1c-2.6-1.7-5.3-3.3-7.9-4.9c-3.6-2.3-5.4-5.6-5.8-9.8c-0.2-2.7-0.7-5.3-1.1-8.5
			c0-0.4-0.1-1.4-0.2-2.3c0-0.3,0.1-0.8,0.2-0.8c0.4,0,0.8,0,1.1,0.2c3.8,2.8,7.7,5.5,10.9,9c3.2,3.4,6.9,6,10.6,8.8
			c1,0.8,2.2,1.3,3.4,1.9c2.6,1.3,4.9,3,6.8,5.3c0.1,0.2,0.3,0.3,0.4,0.5c0,0,0,0-0.1,0c0.1,0.1,0.2,0.3,0.2,0.5
			c0.3,0.2,0.6,0.3,1,0.4c0.1,0,0.2-0.1,0.3-0.1c0.1,0,0.1,0,0.2,0l0,0c-0.1-0.5-0.1-1.1-0.1-1.5l0,0c-0.7-1.5-1.8-2.9-3.2-3.8
			c-2.3-1.5-4.6-3.1-7.1-4.4s-4.7-2.9-6.8-4.7c-4.7-4.1-9.3-8.2-13.4-12.9c-0.6-0.7-1.4-1.3-2.1-2c-0.1-0.1-0.2-0.4-0.1-0.6
			c0.1-0.1,0.3-0.3,0.5-0.3c2.6-0.1,5.1-0.1,7.7,0.5c3,0.7,6.1,1.2,9.1,1.8c5.4,1.1,9.9,3.7,12.5,8.7c1.1,2.1,1.7,4.6,2.4,6.9
			c0.7,2.6,1.3,5.2,2,7.8c0.1,0.4,0.2,0.7,0.3,1.1c0,0.1,0.1,0.1,0.1,0.2c0.4,1.8,1.3,3.4,1.6,5.2c0.1,0.5-0.3,1-0.9,0.9
			c-0.5-0.1-0.9-0.4-1.4-0.5C428.5,402.8,427.2,402.7,425.8,402.7z M432.4,407.6c-0.3,0.3-0.4,0.5-0.6,0.6c-0.5,0.3-1.1,1-1.6,0.7
			c-0.4-0.3-0.1-1.1,0-1.6s0.3-1,0.4-1.5c0.8,0,1.6,0,2.4,0.1c0.2,0,0.4,0,0.6,0C433.2,406.5,432.9,407.1,432.4,407.6z M435.2,402.3
			c-0.1-0.4-0.2-0.8-0.4-1.1c-0.3-0.7-0.6-1.4-0.8-2.1c0.2-0.3,0.4-0.5,0.6-0.8c0.3-0.4,0.7-0.7,1-1c0.2-0.1,0.5-0.1,0.7-0.2
			c0,0.2,0.1,0.4,0.1,0.6C436.1,399.2,435.7,400.8,435.2,402.3z M460,377.5c-1.8,4.2-4.5,7.6-8.8,9.4c-1.3,0.6-2.4,1.7-3.8,1.9
			c-1.8,0.2-3.6-0.1-5.4-0.4c-0.8-0.1-1.4-0.7-2.2-0.8c-0.7-0.1-1.4,0.1-2.1,0.1c0.5,0.5,0.9,1.1,1.4,1.3c1.1,0.6,2.4,0.9,3.6,1.4
			c0.3,0.1,0.6,0.3,0.9,0.4c-0.3,0.3-0.6,0.6-0.9,0.8c-2.1,1.2-4.3,2.3-6.4,3.4c-1.1,0.6-2.1,1.1-3.2,1.7c-1.5-4.5-2.6-9.2-3.8-13.7
			c-1.2-4.2-3.6-7.3-6.9-9.7c-3.6-2.5-7.8-4.1-12.3-4.5c-1.4-0.1-2.8-0.3-4.1-0.7c-2.6-0.7-5.3-0.9-8-0.9c-1.6,0-5.3-2.3-6.2-2.8
			H432c-0.2,0.2-0.5,0.4-0.7,0.6c-1.7,1.4-1.4,2.2,0.7,2.8c2.6,0.7,5,0.2,6.8-1.8c0.5-0.5,0.9-1,1.3-1.5h3.2
			c0.1,1.2,0.3,2.3,0.6,3.5c0.3,1.2,1.3,2.2,1.9,3.4c1.5-0.7,1.5-2.2,1.5-3.4c0-1.1,0.1-2.3,0.1-3.4h7.1c0,0.3,0.1,0.6,0.4,0.8
			c0.7,0.6,2,0,2.8-0.5c0.1-0.1,0.3-0.2,0.4-0.3h5.5C463.3,368.9,461.8,373.2,460,377.5z M479.2,386.3c-0.4,0.4-0.7,0.7-1.1,0.9
			c-0.4,0.2-0.9,0.3-1.3,0.5c0-0.4-0.1-0.9,0.1-1.2c1.5-3.1,3-6.1,4.5-9.1c0.1-0.2,0.3-0.3,0.4-0.5c0.1,0.2,0.2,0.4,0.2,0.5
			C481.7,380.6,481.3,383.8,479.2,386.3z M485.3,373.5c2.5,3.1,4.1,6.5,5.4,10.1c0.4,1,0.5,2.1,0.6,3.1c0,0.6-0.2,1.2-0.4,1.8
			c-0.5-0.3-1.2-0.5-1.5-0.9c-3.2-3.9-5.6-8.2-5.5-13.4c0-0.4,0.1-0.9,0.2-1.3C484.5,373,484.9,373.3,485.3,373.5z M494.4,365.7
			c-1.7,1.6-4.3,2.3-6.5,3.4c-0.9,0.4-1.9,0.6-2.8,0.8c-0.3,0.1-0.9-0.3-1.1-0.6c-0.1-0.2,0.1-0.9,0.3-1c3-2.1,6.4-3.4,10.1-3.5
			c0.2,0,0.5,0,0.6,0.2C495,365.1,494.8,365.4,494.4,365.7z M484.2,366.4c-0.6,0.5-1.1,0.4-1.2-0.6c0-0.5-0.1-0.9-0.1-1.4h5.5
			C487,364.8,485.5,365.4,484.2,366.4z"/>
	</g>
</g>
<rect x="239.3" y="360.7" class="st0" width="127.9" height="3.8"/>
<g>
	<path class="st0" d="M98.1,308.9c-0.3-1.1-1-1.4-2.2-1.4h-1.3v-7.2h5.7c3.4,0,5.2,0.8,5.9,3.8l6.5,27.5c0.6,2.6,0.8,4.9,0.8,4.9
		h0.1c0,0,0.3-2.2,1-4.9l8.7-31.1h7.5l8.2,31.1c0.7,2.7,0.9,4.9,0.9,4.9h0.1c0,0,0.2-2.3,0.8-4.9l6.6-27.5c0.7-3,2.5-3.8,5.9-3.8
		h5.8v7.2h-1.3c-1.2,0-1.9,0.3-2.2,1.4l-10,37.5h-10.2l-7.3-26.1c-0.8-2.9-1.2-5.7-1.2-5.7h-0.1c0,0-0.4,2.7-1.3,5.7l-7.6,26.1H108
		L98.1,308.9z"/>
	<path class="st0" d="M161,339.1h4.8v-31.7H161v-7.2h17.9v7.2h-4.8v31.7h4.8v7.2H161V339.1z"/>
	<path class="st0" d="M185.5,308.9c0-0.9-0.5-1.4-1.5-1.4h-2.9v-7.2h8.6c3.2,0,4.6,1.4,4.6,4.4v33.1c0,0.9,0.5,1.4,1.5,1.4h10.5
		c0.9,0,1.5-0.5,1.5-1.4V335h8v7c0,3.1-1.3,4.4-4.6,4.4h-21.1c-3.2,0-4.6-1.3-4.6-4.4V308.9z"/>
	<path class="st0" d="M218.9,307.4h-4.4v-7.2H234c14.8,0,24.4,8.5,24.4,23s-9.6,23.1-24.4,23.1h-10.5c-3.2,0-4.6-1.3-4.6-4.4V307.4z
		 M229.2,339.1h4.3c9.6,0,15.7-5.5,15.7-15.9c0-10.3-6.3-15.8-15.7-15.8h-5.8v30.3C227.8,338.6,228.3,339.1,229.2,339.1z"/>
	<path class="st0" d="M293.3,299.4c11.7,0,17.5,5.9,17.5,5.9l-5,6.1c0,0-5-4.1-12.3-4.1c-8.3,0-15.4,6.3-15.4,15.7
		c0,10.1,7.2,16.3,15.7,16.3c7.6,0,12.1-4.8,12.1-4.8V331c0-1-0.5-1.4-1.5-1.4h-2.9v-7.2h7.8c3.2,0,4.6,1.3,4.6,4.4v19.7h-7.6v-2.2
		c0-1,0.1-2,0.1-2h-0.1c0,0-5.1,4.9-14.1,4.9c-12.5,0-23.3-9.2-23.3-24.1C269,309.8,279.4,299.4,293.3,299.4z"/>
	<path class="st0" d="M315.5,339.1h1.1c1.1,0,1.7-0.3,2.1-1.4l14.2-37.5h9.2l14.2,37.5c0.4,1.2,0.9,1.4,2.1,1.4h1.1v7.2h-5.3
		c-3.4,0-4.6-0.8-5.7-3.8l-3-8.1h-16.2l-3,8.1c-1.1,2.9-2.2,3.8-5.6,3.8h-5.3L315.5,339.1L315.5,339.1z M343.6,327.5l-4.1-11.6
		c-0.9-2.5-1.9-6.9-1.9-6.9h-0.1c0,0-1,4.4-1.9,6.9l-4.1,11.6H343.6z"/>
	<path class="st0" d="M362.7,307.4h-4.4v-7.2h21.5c8.8,0,14.9,5.2,14.9,13.9c0,8.3-5.9,11.8-8,12.2v0.1c0,0,1.5,0.6,2.4,2.3l4.7,8.9
		c0.7,1.4,1.9,1.5,3.4,1.5h0.9v7.2h-4.7c-3.6,0-5.1-0.5-6.7-3.4l-6.1-11.6c-1-1.8-2-2.1-4.5-2.1h-4.5v17.2h-8.8L362.7,307.4
		L362.7,307.4z M378.6,321.9c4.5,0,7.1-2.7,7.1-7.3c0-4.6-2.6-7.2-6.9-7.2h-7.2v14.4h7V321.9z"/>
	<path class="st0" d="M402.4,307.4H398v-7.2h19.5c14.8,0,24.4,8.5,24.4,23s-9.6,23.1-24.4,23.1H407c-3.2,0-4.6-1.3-4.6-4.4V307.4z
		 M412.7,339.1h4.3c9.6,0,15.7-5.5,15.7-15.9c0-10.3-6.3-15.8-15.7-15.8h-5.8v30.3C411.2,338.6,411.8,339.1,412.7,339.1z"/>
	<path class="st0" d="M447.4,307.4H443v-7.2h29c3.2,0,4.6,1.4,4.6,4.4v7h-8v-2.8c0-0.9-0.5-1.4-1.5-1.4h-10.8v12.1h15.5v7.2h-15.5
		v11c0,0.9,0.5,1.4,1.5,1.4h11.1c0.9,0,1.5-0.5,1.5-1.4v-2.8h8v7c0,3.1-1.4,4.4-4.6,4.4H452c-3.2,0-4.6-1.3-4.6-4.4V307.4z"/>
	<path class="st0" d="M480,339.1h2.9c0.9,0,1.5-0.5,1.5-1.4v-37.5h8l18.1,25.5c1.9,2.7,4,6.5,4,6.5h0.1c0,0-0.5-3.8-0.5-6.5v-21.1
		c0-3.1,1.3-4.4,4.6-4.4h8.6v7.2h-2.9c-0.9,0-1.5,0.5-1.5,1.4v37.5H515l-18.2-25.5c-1.9-2.6-4-6.5-4-6.5h-0.1c0,0,0.5,3.8,0.5,6.5
		v21.1c0,3.1-1.3,4.4-4.6,4.4H480V339.1z"/>
</g>
<g>
	<path class="st0" d="M528,365.2H95.6c-1.4,0-2.5-1.1-2.5-2.5s1.1-2.5,2.5-2.5H528c1.4,0,2.5,1.1,2.5,2.5S529.4,365.2,528,365.2z"/>
</g>
</svg>
